<svg width="100" height="145" viewBox="0 0 100 145" fill="none" xmlns="http://www.w3.org/2000/svg">
<mask id="path-1-inside-1_1_173" fill="white">
<path d="M76.0346 133.587C76.6007 133.929 77.1242 134.443 77.3853 135.126C77.4728 135.255 77.5165 135.341 77.5165 135.468C79.2158 137.095 81.5249 138.122 84.0963 138.122C86.6666 138.122 89.0195 137.095 90.7188 135.427C92.4181 133.758 93.4639 131.447 93.4639 128.924C93.4639 126.356 92.4181 124.089 90.7188 122.421C89.0195 120.753 86.6666 119.726 84.0963 119.726C81.5249 119.726 79.1721 120.753 77.4728 122.421C75.7735 124.089 74.7276 126.356 74.7276 128.924C74.7276 130.635 75.2074 132.218 76.0346 133.587ZM71.7213 7.04161C71.3727 6.69936 70.9366 6.52876 70.4143 6.52876C69.8908 6.52876 69.4548 6.69936 69.1062 7.04161C68.7576 7.38387 68.5838 7.81195 68.5838 8.32588C68.5838 8.83873 68.7576 9.26682 69.1062 9.60907C69.4548 9.90842 69.8908 10.1219 70.4143 10.1219C70.9366 10.1219 71.3727 9.90842 71.7213 9.60907C72.0262 9.26682 72.2437 8.83873 72.2437 8.32588C72.2437 7.81195 72.0262 7.38387 71.7213 7.04161ZM9.71622 7.04161C9.36761 6.69936 8.88896 6.52876 8.40922 6.52876C7.88685 6.52876 7.40711 6.69936 7.10222 7.04161C6.75361 7.38387 6.53612 7.81195 6.53612 8.32588C6.53612 8.83873 6.75361 9.26682 7.10222 9.60907C7.40711 9.90842 7.88685 10.1219 8.40922 10.1219C8.88896 10.1219 9.36761 9.90842 9.71622 9.60907C10.0211 9.26682 10.2397 8.83873 10.2397 8.32588C10.2397 7.81195 10.0211 7.38387 9.71622 7.04161ZM84.0963 113.309C88.4971 113.309 92.4618 115.063 95.3381 117.886C98.2133 120.71 100 124.603 100 128.924C100 133.245 98.2133 137.138 95.3381 139.961C92.4618 142.785 88.4971 144.539 84.0963 144.539C79.8693 144.539 76.0346 142.913 73.1594 140.26C68.4527 141.972 64.2705 142.699 60.5233 142.699C52.2441 142.613 46.3178 138.891 42.2219 133.115C38.3446 127.725 36.1218 120.496 35.0323 112.967C33.5078 102.357 34.1613 90.9344 35.512 83.0206C27.1892 82.1644 19.651 78.656 13.8558 73.3086C7.31966 67.2768 2.96263 58.9778 2.178 49.651C2.09166 49.3517 2.04796 49.0524 2.04796 48.7101V46.6136V46.5289V13.7151C0.784665 12.2613 0 10.3783 0 8.32588C0 6.05775 0.958395 4.00421 2.48396 2.50751C3.96472 1.00972 6.1001 0.111694 8.40922 0.111694C10.7183 0.111694 12.81 1.00972 14.3355 2.50751C15.8163 4.00421 16.7758 6.05775 16.7758 8.32588C16.7758 10.5929 15.8163 12.6465 14.3355 14.1432C12.8537 15.598 10.8057 16.4961 8.58402 16.539V46.5289V46.6136V48.0685C8.62774 48.2391 8.62774 48.3679 8.67036 48.4966C9.1501 56.4533 12.7662 63.5548 18.3439 68.6458C23.8342 73.6938 31.2413 76.817 39.3893 76.817C47.5384 76.817 54.9893 73.6938 60.4796 68.6458C65.9698 63.5978 69.5859 56.5391 70.152 48.7101C70.152 48.4537 70.152 48.2391 70.1957 48.0685V46.6136V46.5289V16.539C67.974 16.4961 65.9698 15.598 64.488 14.1432C62.9624 12.6465 62.0478 10.5929 62.0478 8.32588C62.0478 6.05775 62.9624 4.00421 64.488 2.50751C66.0135 1.00972 68.1041 0.111694 70.4143 0.111694C72.7234 0.111694 74.8151 1.00972 76.3395 2.50751C77.8651 4.00421 78.7798 6.05775 78.7798 8.32588C78.7798 10.3783 78.0388 12.2613 76.7318 13.7151V46.5289V46.6136V48.7101C76.7318 49.0524 76.6882 49.3517 76.6007 49.651C75.8172 58.9349 71.5028 67.2768 64.924 73.3086C58.8666 78.9135 50.8934 82.5067 42.0919 83.1483C40.7401 90.5063 40.0002 101.715 41.481 112.068C42.4405 118.699 44.3136 124.946 47.5385 129.437C50.5011 133.587 54.7281 136.239 60.5233 136.282C63.1373 136.325 66.0562 135.854 69.3685 134.785C68.6276 132.988 68.1915 130.977 68.1915 128.924C68.1915 124.603 69.9783 120.71 72.8535 117.886C75.7298 115.063 79.6945 113.309 84.0963 113.309Z"/>
</mask>
<path d="M76.0346 133.587C76.6007 133.929 77.1242 134.443 77.3853 135.126C77.4728 135.255 77.5165 135.341 77.5165 135.468C79.2158 137.095 81.5249 138.122 84.0963 138.122C86.6666 138.122 89.0195 137.095 90.7188 135.427C92.4181 133.758 93.4639 131.447 93.4639 128.924C93.4639 126.356 92.4181 124.089 90.7188 122.421C89.0195 120.753 86.6666 119.726 84.0963 119.726C81.5249 119.726 79.1721 120.753 77.4728 122.421C75.7735 124.089 74.7276 126.356 74.7276 128.924C74.7276 130.635 75.2074 132.218 76.0346 133.587ZM71.7213 7.04161C71.3727 6.69936 70.9366 6.52876 70.4143 6.52876C69.8908 6.52876 69.4548 6.69936 69.1062 7.04161C68.7576 7.38387 68.5838 7.81195 68.5838 8.32588C68.5838 8.83873 68.7576 9.26682 69.1062 9.60907C69.4548 9.90842 69.8908 10.1219 70.4143 10.1219C70.9366 10.1219 71.3727 9.90842 71.7213 9.60907C72.0262 9.26682 72.2437 8.83873 72.2437 8.32588C72.2437 7.81195 72.0262 7.38387 71.7213 7.04161ZM9.71622 7.04161C9.36761 6.69936 8.88896 6.52876 8.40922 6.52876C7.88685 6.52876 7.40711 6.69936 7.10222 7.04161C6.75361 7.38387 6.53612 7.81195 6.53612 8.32588C6.53612 8.83873 6.75361 9.26682 7.10222 9.60907C7.40711 9.90842 7.88685 10.1219 8.40922 10.1219C8.88896 10.1219 9.36761 9.90842 9.71622 9.60907C10.0211 9.26682 10.2397 8.83873 10.2397 8.32588C10.2397 7.81195 10.0211 7.38387 9.71622 7.04161ZM84.0963 113.309C88.4971 113.309 92.4618 115.063 95.3381 117.886C98.2133 120.71 100 124.603 100 128.924C100 133.245 98.2133 137.138 95.3381 139.961C92.4618 142.785 88.4971 144.539 84.0963 144.539C79.8693 144.539 76.0346 142.913 73.1594 140.26C68.4527 141.972 64.2705 142.699 60.5233 142.699C52.2441 142.613 46.3178 138.891 42.2219 133.115C38.3446 127.725 36.1218 120.496 35.0323 112.967C33.5078 102.357 34.1613 90.9344 35.512 83.0206C27.1892 82.1644 19.651 78.656 13.8558 73.3086C7.31966 67.2768 2.96263 58.9778 2.178 49.651C2.09166 49.3517 2.04796 49.0524 2.04796 48.7101V46.6136V46.5289V13.7151C0.784665 12.2613 0 10.3783 0 8.32588C0 6.05775 0.958395 4.00421 2.48396 2.50751C3.96472 1.00972 6.1001 0.111694 8.40922 0.111694C10.7183 0.111694 12.81 1.00972 14.3355 2.50751C15.8163 4.00421 16.7758 6.05775 16.7758 8.32588C16.7758 10.5929 15.8163 12.6465 14.3355 14.1432C12.8537 15.598 10.8057 16.4961 8.58402 16.539V46.5289V46.6136V48.0685C8.62774 48.2391 8.62774 48.3679 8.67036 48.4966C9.1501 56.4533 12.7662 63.5548 18.3439 68.6458C23.8342 73.6938 31.2413 76.817 39.3893 76.817C47.5384 76.817 54.9893 73.6938 60.4796 68.6458C65.9698 63.5978 69.5859 56.5391 70.152 48.7101C70.152 48.4537 70.152 48.2391 70.1957 48.0685V46.6136V46.5289V16.539C67.974 16.4961 65.9698 15.598 64.488 14.1432C62.9624 12.6465 62.0478 10.5929 62.0478 8.32588C62.0478 6.05775 62.9624 4.00421 64.488 2.50751C66.0135 1.00972 68.1041 0.111694 70.4143 0.111694C72.7234 0.111694 74.8151 1.00972 76.3395 2.50751C77.8651 4.00421 78.7798 6.05775 78.7798 8.32588C78.7798 10.3783 78.0388 12.2613 76.7318 13.7151V46.5289V46.6136V48.7101C76.7318 49.0524 76.6882 49.3517 76.6007 49.651C75.8172 58.9349 71.5028 67.2768 64.924 73.3086C58.8666 78.9135 50.8934 82.5067 42.0919 83.1483C40.7401 90.5063 40.0002 101.715 41.481 112.068C42.4405 118.699 44.3136 124.946 47.5385 129.437C50.5011 133.587 54.7281 136.239 60.5233 136.282C63.1373 136.325 66.0562 135.854 69.3685 134.785C68.6276 132.988 68.1915 130.977 68.1915 128.924C68.1915 124.603 69.9783 120.71 72.8535 117.886C75.7298 115.063 79.6945 113.309 84.0963 113.309Z" fill="#1A1919"/>
<path d="M76.0346 133.587L74.9996 135.298L74.5779 135.043L74.323 134.621L76.0346 133.587ZM77.3853 135.126L75.7307 136.25L75.6001 136.057L75.5171 135.84L77.3853 135.126ZM77.5165 135.468L76.1336 136.913L75.5165 136.323V135.468H77.5165ZM90.7188 135.427L92.12 136.854L92.1198 136.854L90.7188 135.427ZM71.7213 7.04161L73.1224 5.61446L73.1702 5.66132L73.2147 5.71126L71.7213 7.04161ZM69.1062 9.60907L67.8033 11.1264L67.7527 11.083L67.7051 11.0362L69.1062 9.60907ZM71.7213 9.60907L73.2147 10.9394L73.1257 11.0393L73.0242 11.1264L71.7213 9.60907ZM9.71622 7.04161L11.1174 5.61446L11.1651 5.66132L11.2096 5.71126L9.71622 7.04161ZM7.10222 7.04161L8.59559 8.37196L8.5511 8.42191L8.50337 8.46877L7.10222 7.04161ZM7.10222 9.60907L8.50337 8.18192L7.10222 9.60907ZM9.71622 9.60907L11.2096 10.9394L11.1206 11.0393L11.0191 11.1264L9.71622 9.60907ZM95.3381 117.886L96.739 116.458L96.7395 116.459L95.3381 117.886ZM95.3381 139.961L93.9369 138.534L93.937 138.534L95.3381 139.961ZM73.1594 140.26L72.4759 138.38L73.6205 137.964L74.5156 138.79L73.1594 140.26ZM60.5233 142.699V144.699H60.5129L60.5025 144.699L60.5233 142.699ZM42.2219 133.115L43.8455 131.948L43.8533 131.959L42.2219 133.115ZM35.0323 112.967L33.0529 113.253L33.0526 113.251L35.0323 112.967ZM35.512 83.0206L35.7167 81.0311L37.8432 81.2499L37.4835 83.3571L35.512 83.0206ZM13.8558 73.3086L12.4995 74.7785L12.4994 74.7784L13.8558 73.3086ZM2.178 49.651L4.09967 49.0968L4.1544 49.2866L4.17096 49.4834L2.178 49.651ZM2.04796 13.7151L3.55762 12.4032L4.04796 12.9675V13.7151H2.04796ZM2.48396 2.50751L3.90623 3.91362L3.8955 3.92447L3.88461 3.93515L2.48396 2.50751ZM14.3355 2.50751L15.7367 1.08035L15.7471 1.09055L15.7573 1.10089L14.3355 2.50751ZM14.3355 14.1432L15.7573 15.5498L15.7471 15.5601L15.7367 15.5703L14.3355 14.1432ZM8.58402 16.539H6.58402V14.5773L8.5454 14.5394L8.58402 16.539ZM8.58402 48.0685L6.64662 48.5649L6.58402 48.3207V48.0685H8.58402ZM8.67036 48.4966L10.569 47.8681L10.651 48.1158L10.6667 48.3762L8.67036 48.4966ZM18.3439 68.6458L19.6922 67.1686L19.6976 67.1735L18.3439 68.6458ZM70.152 48.7101H72.152V48.7823L72.1468 48.8543L70.152 48.7101ZM70.1957 48.0685H72.1957V48.3207L72.1331 48.5649L70.1957 48.0685ZM70.1957 16.539L70.2343 14.5394L72.1957 14.5773V16.539H70.1957ZM64.488 14.1432L65.8886 12.7155L65.8891 12.716L64.488 14.1432ZM64.488 2.50751L65.8891 3.93466L65.8886 3.93515L64.488 2.50751ZM76.3395 2.50751L74.9389 3.93517L74.9379 3.93416L76.3395 2.50751ZM76.7318 13.7151H74.7318V12.9482L75.2445 12.378L76.7318 13.7151ZM76.6007 49.651L74.6078 49.4828L74.6247 49.2829L74.6809 49.0904L76.6007 49.651ZM64.924 73.3086L63.5657 71.8406L63.5724 71.8345L64.924 73.3086ZM42.0919 83.1483L40.1248 82.7869L40.4042 81.266L41.9465 81.1536L42.0919 83.1483ZM41.481 112.068L39.5016 112.355L39.5011 112.352L41.481 112.068ZM47.5385 129.437L49.163 128.27L49.1663 128.275L47.5385 129.437ZM60.5233 136.282L60.538 134.282L60.547 134.282L60.5559 134.282L60.5233 136.282ZM69.3685 134.785L71.2175 134.023L72.0425 136.024L69.9826 136.689L69.3685 134.785ZM72.8535 117.886L71.452 116.459L71.4526 116.458L72.8535 117.886ZM77.0697 131.875C77.9043 132.38 78.7922 133.205 79.2536 134.412L75.5171 135.84C75.4561 135.681 75.2971 135.478 74.9996 135.298L77.0697 131.875ZM79.0399 134.003C79.1914 134.226 79.5165 134.727 79.5165 135.468H75.5165C75.5165 135.661 75.5549 135.865 75.6324 136.055C75.6929 136.203 75.7582 136.29 75.7307 136.25L79.0399 134.003ZM78.8994 134.024C80.2492 135.315 82.0707 136.122 84.0963 136.122V140.122C80.9791 140.122 78.1825 138.874 76.1336 136.913L78.8994 134.024ZM84.0963 136.122C86.1283 136.122 87.982 135.311 89.3178 134L92.1198 136.854C90.0569 138.879 87.205 140.122 84.0963 140.122V136.122ZM89.3176 134C90.6525 132.689 91.4639 130.885 91.4639 128.924H95.4639C95.4639 132.01 94.1837 134.828 92.12 136.854L89.3176 134ZM91.4639 128.924C91.4639 126.924 90.6563 125.162 89.3176 123.848L92.1199 120.994C94.1799 123.016 95.4639 125.789 95.4639 128.924H91.4639ZM89.3176 123.848C87.9819 122.537 86.1282 121.726 84.0963 121.726V117.726C87.205 117.726 90.057 118.968 92.1199 120.994L89.3176 123.848ZM84.0963 121.726C82.0632 121.726 80.2096 122.537 78.874 123.848L76.0716 120.994C78.1347 118.968 80.9867 117.726 84.0963 117.726V121.726ZM78.874 123.848C77.5353 125.162 76.7276 126.924 76.7276 128.924H72.7276C72.7276 125.789 74.0117 123.016 76.0716 120.994L78.874 123.848ZM76.7276 128.924C76.7276 130.252 77.0977 131.479 77.7463 132.552L74.323 134.621C73.317 132.957 72.7276 131.019 72.7276 128.924H76.7276ZM70.3201 8.46877C70.3229 8.47153 70.3324 8.48022 70.3489 8.49098C70.3655 8.50185 70.3841 8.51147 70.4029 8.51881C70.4434 8.53473 70.455 8.52876 70.4143 8.52876V4.52876C71.4184 4.52876 72.3707 4.87646 73.1224 5.61446L70.3201 8.46877ZM70.4143 8.52876C70.3726 8.52876 70.3838 8.53488 70.4244 8.51897C70.4431 8.51163 70.4618 8.50197 70.4785 8.49106C70.495 8.48026 70.5046 8.47153 70.5074 8.46877L67.7051 5.61446C68.4572 4.87607 69.4096 4.52876 70.4143 4.52876V8.52876ZM70.5074 8.46877C70.5101 8.46603 70.5201 8.45567 70.5327 8.43709C70.5455 8.41826 70.5574 8.39618 70.567 8.37262C70.5877 8.3217 70.5838 8.29784 70.5838 8.32588H66.5838C66.5838 7.3078 66.9507 6.35507 67.7051 5.61446L70.5074 8.46877ZM70.5838 8.32588C70.5838 8.35289 70.5876 8.32867 70.5669 8.27779C70.5573 8.25424 70.5453 8.23222 70.5326 8.21347C70.52 8.19496 70.5101 8.18463 70.5074 8.18192L67.7051 11.0362C66.9512 10.2961 66.5838 9.34354 66.5838 8.32588H70.5838ZM70.4091 8.09171C70.4504 8.12714 70.4697 8.13399 70.4636 8.13147C70.4602 8.13005 70.4525 8.12724 70.4414 8.12497C70.4301 8.12265 70.4204 8.12192 70.4143 8.12192V12.1219C69.3055 12.1219 68.4239 11.6594 67.8033 11.1264L70.4091 8.09171ZM70.4143 8.12192C70.4076 8.12192 70.3975 8.12271 70.386 8.12508C70.3748 8.1274 70.367 8.13023 70.3636 8.13164C70.3577 8.13411 70.3771 8.12715 70.4184 8.09171L73.0242 11.1264C72.4041 11.6589 71.5225 12.1219 70.4143 12.1219V8.12192ZM70.2279 8.27872C70.2635 8.23875 70.2671 8.22365 70.2611 8.23773C70.2578 8.24535 70.253 8.25854 70.2492 8.27628C70.2453 8.29433 70.2437 8.3116 70.2437 8.32588H74.2437C74.2437 9.44814 73.7571 10.3305 73.2147 10.9394L70.2279 8.27872ZM70.2437 8.32588C70.2437 8.3396 70.2452 8.35649 70.2491 8.37434C70.2528 8.39188 70.2576 8.40503 70.2609 8.41266C70.267 8.42686 70.2635 8.41188 70.2279 8.37196L73.2147 5.71126C73.7576 6.32069 74.2437 7.20312 74.2437 8.32588H70.2437ZM8.31506 8.46877C8.35009 8.50316 8.38158 8.5188 8.39698 8.5247C8.41085 8.53001 8.41437 8.52876 8.40922 8.52876V4.52876C9.34625 4.52876 10.3497 4.86078 11.1174 5.61446L8.31506 8.46877ZM8.40922 8.52876C8.36114 8.52876 8.35654 8.53714 8.3887 8.52484C8.42358 8.51151 8.50799 8.47029 8.59559 8.37196L5.60884 5.71126C6.39557 4.82812 7.49076 4.52876 8.40922 4.52876V8.52876ZM8.50337 8.46877C8.47797 8.49371 8.48952 8.48993 8.50707 8.45158C8.51569 8.43274 8.52362 8.41005 8.52908 8.38516C8.53456 8.3602 8.53612 8.33954 8.53612 8.32588H4.53612C4.53612 7.18651 5.03765 6.26579 5.70106 5.61446L8.50337 8.46877ZM8.53612 8.32588C8.53612 8.31166 8.53449 8.29062 8.52896 8.26544C8.52345 8.24037 8.51548 8.21761 8.50687 8.19879C8.48937 8.16057 8.47793 8.15694 8.50337 8.18192L5.70106 11.0362C5.03818 10.3854 4.53612 9.46481 4.53612 8.32588H8.53612ZM8.50337 8.18192C8.47808 8.15709 8.45863 8.14316 8.44792 8.13623C8.43693 8.12912 8.43009 8.1261 8.42736 8.125C8.42362 8.12347 8.41903 8.12192 8.40922 8.12192V12.1219C7.3685 12.1219 6.38398 11.7067 5.70106 11.0362L8.50337 8.18192ZM8.40922 8.12192C8.38106 8.12192 8.36324 8.12502 8.35642 8.12643C8.3497 8.12785 8.3507 8.12825 8.3583 8.12515C8.36586 8.12209 8.3762 8.11707 8.38766 8.11005C8.39917 8.103 8.40799 8.09625 8.41329 8.09171L11.0191 11.1264C10.3789 11.6762 9.45296 12.1219 8.40922 12.1219V8.12192ZM8.22284 8.27872C8.2593 8.23779 8.26333 8.22202 8.25736 8.23581C8.2541 8.24332 8.24922 8.25662 8.24534 8.27467C8.24139 8.29308 8.23968 8.31088 8.23968 8.32588H12.2397C12.2397 9.45078 11.7498 10.333 11.2096 10.9394L8.22284 8.27872ZM8.23968 8.32588C8.23968 8.3403 8.24133 8.35774 8.24523 8.37595C8.24906 8.3938 8.25391 8.40704 8.25717 8.4146C8.26319 8.42848 8.25927 8.41286 8.22284 8.37196L11.2096 5.71126C11.7503 6.31821 12.2397 7.20049 12.2397 8.32588H8.23968ZM84.0963 111.309C89.0396 111.309 93.5023 113.282 96.739 116.458L93.9372 119.313C91.4214 116.844 87.9545 115.309 84.0963 115.309V111.309ZM96.7395 116.459C99.9757 119.637 102 124.037 102 128.924H98C98 125.17 96.4509 121.782 93.9367 119.313L96.7395 116.459ZM102 128.924C102 133.811 99.9757 138.211 96.7392 141.388L93.937 138.534C96.4508 136.066 98 132.678 98 128.924H102ZM96.7393 141.388C93.5025 144.566 89.0397 146.539 84.0963 146.539V142.539C87.9544 142.539 91.4212 141.004 93.9369 138.534L96.7393 141.388ZM84.0963 146.539C79.3447 146.539 75.0314 144.708 71.8033 141.73L74.5156 138.79C77.0379 141.117 80.3939 142.539 84.0963 142.539V146.539ZM73.8429 142.14C68.9478 143.92 64.5342 144.699 60.5233 144.699V140.699C64.0069 140.699 67.9576 140.024 72.4759 138.38L73.8429 142.14ZM60.5025 144.699C51.5236 144.606 45.0218 140.521 40.5905 134.272L43.8533 131.959C47.6138 137.261 52.9646 140.62 60.544 140.699L60.5025 144.699ZM40.5983 134.283C36.4582 128.528 34.1656 120.943 33.0529 113.253L37.0117 112.68C38.078 120.05 40.231 126.923 43.8455 131.948L40.5983 134.283ZM33.0526 113.251C31.4933 102.399 32.1615 90.7636 33.5406 82.6841L37.4835 83.3571C36.1611 91.1051 35.5223 102.315 37.012 112.682L33.0526 113.251ZM35.3074 85.0101C26.5508 84.1093 18.6095 80.4164 12.4995 74.7785L15.2121 71.8388C20.6924 76.8956 27.8275 80.2195 35.7167 81.0311L35.3074 85.0101ZM12.4994 74.7784C5.6178 68.4277 1.01405 59.673 0.185035 49.8187L4.17096 49.4834C4.91122 58.2827 9.02153 66.1258 15.2122 71.8389L12.4994 74.7784ZM0.25632 50.2053C0.117126 49.7226 0.0479568 49.2366 0.0479568 48.7101H4.04796C4.04796 48.8681 4.0662 48.9808 4.09967 49.0968L0.25632 50.2053ZM0.0479568 48.7101V46.6136H4.04796V48.7101H0.0479568ZM0.0479568 46.6136V46.5289H4.04796V46.6136H0.0479568ZM0.0479568 46.5289V13.7151H4.04796V46.5289H0.0479568ZM0.538297 15.0269C-1.01509 13.2393 -2 10.8988 -2 8.32588H2C2 9.85788 2.58442 11.2833 3.55762 12.4032L0.538297 15.0269ZM-2 8.32588C-2 5.47874 -0.794596 2.92224 1.08332 1.07985L3.88461 3.93515C2.71139 5.08618 2 6.63675 2 8.32588H-2ZM1.06169 1.10139C2.93352 -0.791946 5.58796 -1.88831 8.40922 -1.88831V2.11169C6.61225 2.11169 4.99593 2.8114 3.90623 3.91362L1.06169 1.10139ZM8.40922 -1.88831C11.2472 -1.88831 13.8406 -0.781174 15.7367 1.08035L12.9344 3.93466C11.7793 2.80061 10.1894 2.11169 8.40922 2.11169V-1.88831ZM15.7573 1.10089C17.5719 2.93504 18.7758 5.48119 18.7758 8.32588H14.7758C14.7758 6.63431 14.0607 5.07338 12.9138 3.91412L15.7573 1.10089ZM18.7758 8.32588C18.7758 11.1696 17.5718 13.7157 15.7573 15.5498L12.9138 12.7366C14.0608 11.5772 14.7758 10.0162 14.7758 8.32588H18.7758ZM15.7367 15.5703C13.8942 17.3793 11.3602 18.4857 8.62265 18.5386L8.5454 14.5394C10.2512 14.5064 11.8132 13.8168 12.9344 12.716L15.7367 15.5703ZM10.584 16.539V46.5289H6.58402V16.539H10.584ZM10.584 46.5289V46.6136H6.58402V46.5289H10.584ZM10.584 46.6136V48.0685H6.58402V46.6136H10.584ZM10.5214 47.5721C10.5717 47.7683 10.5963 47.9422 10.604 47.9918C10.6093 48.0258 10.6085 48.0183 10.6049 48.0009C10.6004 47.9787 10.5897 47.9305 10.569 47.8681L6.77169 49.1251C6.69181 48.8838 6.6609 48.6672 6.65122 48.6047C6.63732 48.5151 6.64004 48.5393 6.64662 48.5649L10.5214 47.5721ZM10.6667 48.3762C11.1138 55.7904 14.4813 62.4125 19.6922 67.1686L16.9957 70.123C11.0511 64.6972 7.18644 57.1161 6.67399 48.617L10.6667 48.3762ZM19.6976 67.1735C24.8319 71.8942 31.7602 74.817 39.3893 74.817V78.817C30.7224 78.817 22.8366 75.4934 16.9903 70.1181L19.6976 67.1735ZM39.3893 74.817C47.0225 74.817 53.9939 71.8921 59.1259 67.1735L61.8332 70.1181C55.9846 75.4955 48.0543 78.817 39.3893 78.817V74.817ZM59.1259 67.1735C64.2575 62.4553 67.6295 55.8649 68.1572 48.5659L72.1468 48.8543C71.5424 57.2133 67.6822 64.7402 61.8332 70.1181L59.1259 67.1735ZM68.152 48.7101C68.152 48.5451 68.1381 48.0413 68.2583 47.5721L72.1331 48.5649C72.1469 48.5113 72.1524 48.4732 72.1543 48.4581C72.1563 48.443 72.1558 48.4413 72.1549 48.459C72.154 48.4768 72.1531 48.5046 72.1526 48.5488C72.152 48.594 72.152 48.6435 72.152 48.7101H68.152ZM68.1957 48.0685V46.6136H72.1957V48.0685H68.1957ZM68.1957 46.6136V46.5289H72.1957V46.6136H68.1957ZM68.1957 46.5289V16.539H72.1957V46.5289H68.1957ZM70.1571 18.5386C67.408 18.4855 64.9209 17.371 63.0868 15.5703L65.8891 12.716C67.0187 13.825 68.5401 14.5066 70.2343 14.5394L70.1571 18.5386ZM63.0873 15.5708C61.1897 13.7091 60.0478 11.1456 60.0478 8.32588H64.0478C64.0478 10.0402 64.7351 11.5838 65.8886 12.7155L63.0873 15.5708ZM60.0478 8.32588C60.0478 5.50519 61.1896 2.94167 63.0873 1.07985L65.8886 3.93515C64.7352 5.06676 64.0478 6.61031 64.0478 8.32588H60.0478ZM63.0868 1.08035C64.9828 -0.781067 67.575 -1.88831 70.4143 -1.88831V2.11169C68.6331 2.11169 67.0443 2.80052 65.8891 3.93466L63.0868 1.08035ZM70.4143 -1.88831C73.2522 -1.88831 75.8459 -0.781235 77.7412 1.08086L74.9379 3.93416C73.7842 2.80069 72.1946 2.11169 70.4143 2.11169V-1.88831ZM77.7402 1.07985C79.6379 2.94165 80.7798 5.50516 80.7798 8.32588H76.7798C76.7798 6.61034 76.0923 5.06677 74.9389 3.93515L77.7402 1.07985ZM80.7798 8.32588C80.7798 10.8723 79.8561 13.2314 78.2191 15.0522L75.2445 12.378C76.2216 11.2912 76.7798 9.88445 76.7798 8.32588H80.7798ZM78.7318 13.7151V46.5289H74.7318V13.7151H78.7318ZM78.7318 46.5289V46.6136H74.7318V46.5289H78.7318ZM78.7318 46.6136V48.7101H74.7318V46.6136H78.7318ZM78.7318 48.7101C78.7318 49.2365 78.6627 49.7249 78.5205 50.2117L74.6809 49.0904C74.7136 48.9785 74.7318 48.8682 74.7318 48.7101H78.7318ZM78.5937 49.8192C77.7662 59.6232 73.2097 68.4251 66.2756 74.7828L63.5724 71.8345C69.7958 66.1284 73.8682 58.2466 74.6078 49.4828L78.5937 49.8192ZM66.2823 74.7766C59.8951 80.6866 51.4953 84.4681 42.2373 85.143L41.9465 81.1536C50.2914 80.5453 57.838 77.1404 63.5657 71.8407L66.2823 74.7766ZM44.0589 83.5097C42.7392 90.6932 42.0158 101.681 43.4608 111.785L39.5011 112.352C37.9847 101.749 38.7409 90.3193 40.1248 82.7869L44.0589 83.5097ZM43.4604 111.782C44.4 118.275 46.2086 124.156 49.163 128.27L45.9139 130.603C42.4186 125.735 40.481 119.123 39.5016 112.355L43.4604 111.782ZM49.1663 128.275C51.8013 131.966 55.4571 134.244 60.538 134.282L60.5085 138.282C53.9991 138.234 49.2009 135.208 45.9107 130.599L49.1663 128.275ZM60.5559 134.282C62.905 134.321 65.6026 133.899 68.7543 132.882L69.9826 136.689C66.5097 137.809 63.3695 138.329 60.4906 138.282L60.5559 134.282ZM67.5195 135.548C66.6858 133.525 66.1915 131.256 66.1915 128.924H70.1915C70.1915 130.698 70.5693 132.451 71.2175 134.023L67.5195 135.548ZM66.1915 128.924C66.1915 124.037 68.2159 119.637 71.452 116.459L74.2549 119.313C71.7407 121.782 70.1915 125.17 70.1915 128.924H66.1915ZM71.4526 116.458C74.6894 113.282 79.152 111.309 84.0963 111.309V115.309C80.2369 115.309 76.7701 116.844 74.2544 119.313L71.4526 116.458Z" fill="white" mask="url(#path-1-inside-1_1_173)"/>
</svg>
