<svg width="71" height="153" viewBox="0 0 71 153" fill="none" xmlns="http://www.w3.org/2000/svg">
<rect x="1.6582" y="26.1776" width="67.7215" height="125.823" rx="1" stroke="black" stroke-width="2" stroke-linecap="round" stroke-linejoin="round"/>
<line x1="0.658203" y1="59.0377" x2="70.3797" y2="59.0377" stroke="black" stroke-width="2"/>
<line x1="0.658203" y1="117.139" x2="70.3797" y2="117.139" stroke="black" stroke-width="2"/>
<rect x="22.9617" y="18.4308" width="25.1139" height="7.68354" stroke="black" stroke-width="2" stroke-linecap="round" stroke-linejoin="round"/>
<rect x="13.2778" y="1" width="44.481" height="17.3671" stroke="black" stroke-width="2" stroke-linejoin="round"/>
<mask id="path-6-inside-1_1_174" fill="white">
<path fill-rule="evenodd" clip-rule="evenodd" d="M40.4999 71.6587H30.5397V84.1092L18.0889 84.1092V94.0695H30.5397V106.519H40.4999V94.0695H52.9497V84.1092L40.4999 84.1092V71.6587Z"/>
</mask>
<path d="M30.5397 71.6587V69.6587C29.4351 69.6587 28.5397 70.5541 28.5397 71.6587H30.5397ZM40.4999 71.6587H42.4999C42.4999 70.5541 41.6044 69.6587 40.4999 69.6587V71.6587ZM30.5397 84.1092V86.1092C31.6442 86.1092 32.5397 85.2138 32.5397 84.1092H30.5397ZM18.0889 84.1092L18.0889 82.1092C16.9844 82.1092 16.0889 83.0047 16.0889 84.1092H18.0889ZM18.0889 94.0695H16.0889C16.0889 95.174 16.9844 96.0695 18.0889 96.0695V94.0695ZM30.5397 94.0695H32.5397C32.5397 92.9649 31.6442 92.0695 30.5397 92.0695V94.0695ZM30.5397 106.519H28.5397C28.5397 107.624 29.4351 108.519 30.5397 108.519V106.519ZM40.4999 106.519V108.519C41.6044 108.519 42.4999 107.624 42.4999 106.519H40.4999ZM40.4999 94.0695V92.0695C39.3953 92.0695 38.4999 92.9649 38.4999 94.0695H40.4999ZM52.9497 94.0695V96.0695C54.0543 96.0695 54.9497 95.174 54.9497 94.0695H52.9497ZM52.9497 84.1092H54.9497C54.9497 83.5788 54.739 83.0701 54.3639 82.695C53.9888 82.32 53.4801 82.1092 52.9497 82.1092V84.1092ZM40.4999 84.1092H38.4999C38.4999 84.6397 38.7106 85.1484 39.0857 85.5235C39.4607 85.8985 39.9694 86.1092 40.4999 86.1092V84.1092ZM30.5397 73.6587H40.4999V69.6587H30.5397V73.6587ZM32.5397 84.1092V71.6587H28.5397V84.1092H32.5397ZM18.0889 86.1092L30.5397 86.1092V82.1092L18.0889 82.1092L18.0889 86.1092ZM20.0889 94.0695V84.1092H16.0889V94.0695H20.0889ZM30.5397 92.0695H18.0889V96.0695H30.5397V92.0695ZM32.5397 106.519V94.0695H28.5397V106.519H32.5397ZM40.4999 104.519H30.5397V108.519H40.4999V104.519ZM38.4999 94.0695V106.519H42.4999V94.0695H38.4999ZM52.9497 92.0695H40.4999V96.0695H52.9497V92.0695ZM50.9497 84.1092V94.0695H54.9497V84.1092H50.9497ZM40.4999 86.1092L52.9497 86.1092V82.1092L40.4999 82.1092V86.1092ZM38.4999 71.6587V84.1092H42.4999V71.6587H38.4999Z" fill="black" mask="url(#path-6-inside-1_1_174)"/>
</svg>
