<svg width="63" height="153" viewBox="0 0 63 153" fill="none" xmlns="http://www.w3.org/2000/svg">
<mask id="path-1-inside-1_1_172" fill="white">
<path d="M36.906 125.681C35.1256 125.681 33.649 124.266 33.649 122.465C33.649 120.706 35.1256 119.249 36.906 119.249H47.804V109.172H36.906C35.1256 109.172 33.649 107.757 33.649 105.956C33.649 104.198 35.1256 102.74 36.906 102.74H47.804V92.663H36.906C35.1256 92.663 33.649 91.2478 33.649 89.4465C33.649 87.6893 35.1256 86.231 36.906 86.231H47.804V76.1975H36.906C35.1256 76.1975 33.649 74.7392 33.649 72.9809C33.649 71.1796 35.1256 69.7655 36.906 69.7655H47.804V64.0196V63.8045L31.5212 47.2099L15.2396 63.8045V64.0196V131.384C15.2396 131.427 15.2831 131.512 15.3267 131.555V131.598C15.3702 131.641 15.4573 131.641 15.5009 131.684H47.4991C47.5862 131.641 47.6298 131.641 47.7169 131.598C47.7604 131.512 47.804 131.47 47.804 131.384V125.681H36.906ZM34.7782 138.116V146.091H49.1499C50.9728 146.091 52.4058 147.506 52.4058 149.308C52.4058 151.066 50.9728 152.523 49.1499 152.523H13.8501C12.0708 152.523 10.5942 151.066 10.5942 149.308C10.5942 147.506 12.0708 146.091 13.8501 146.091H28.2653V138.116H15.5434H15.4573H3.2559C1.47659 138.116 0 136.658 0 134.899C0 133.099 1.47659 131.684 3.2559 131.684H8.72668C8.72668 131.555 8.72668 131.47 8.72668 131.384V64.0196V62.5183C8.72668 61.6182 9.07405 60.8461 9.6392 60.246L28.2653 41.293V3.34412C28.2653 1.54282 29.6984 0.127563 31.5212 0.127563C33.3016 0.127563 34.7782 1.54282 34.7782 3.34412V41.293L53.3608 60.246C54.012 60.9321 54.3158 61.7892 54.2733 62.6474V64.0196H54.3158V72.9809V89.4465V105.956V122.465V131.384C54.3158 131.47 54.3158 131.555 54.2733 131.684H59.743C61.567 131.684 63 133.099 63 134.899C63 136.658 61.567 138.116 59.743 138.116H47.5862H47.4991H34.7782Z"/>
</mask>
<path d="M36.906 125.681C35.1256 125.681 33.649 124.266 33.649 122.465C33.649 120.706 35.1256 119.249 36.906 119.249H47.804V109.172H36.906C35.1256 109.172 33.649 107.757 33.649 105.956C33.649 104.198 35.1256 102.74 36.906 102.74H47.804V92.663H36.906C35.1256 92.663 33.649 91.2478 33.649 89.4465C33.649 87.6893 35.1256 86.231 36.906 86.231H47.804V76.1975H36.906C35.1256 76.1975 33.649 74.7392 33.649 72.9809C33.649 71.1796 35.1256 69.7655 36.906 69.7655H47.804V64.0196V63.8045L31.5212 47.2099L15.2396 63.8045V64.0196V131.384C15.2396 131.427 15.2831 131.512 15.3267 131.555V131.598C15.3702 131.641 15.4573 131.641 15.5009 131.684H47.4991C47.5862 131.641 47.6298 131.641 47.7169 131.598C47.7604 131.512 47.804 131.47 47.804 131.384V125.681H36.906ZM34.7782 138.116V146.091H49.1499C50.9728 146.091 52.4058 147.506 52.4058 149.308C52.4058 151.066 50.9728 152.523 49.1499 152.523H13.8501C12.0708 152.523 10.5942 151.066 10.5942 149.308C10.5942 147.506 12.0708 146.091 13.8501 146.091H28.2653V138.116H15.5434H15.4573H3.2559C1.47659 138.116 0 136.658 0 134.899C0 133.099 1.47659 131.684 3.2559 131.684H8.72668C8.72668 131.555 8.72668 131.47 8.72668 131.384V64.0196V62.5183C8.72668 61.6182 9.07405 60.8461 9.6392 60.246L28.2653 41.293V3.34412C28.2653 1.54282 29.6984 0.127563 31.5212 0.127563C33.3016 0.127563 34.7782 1.54282 34.7782 3.34412V41.293L53.3608 60.246C54.012 60.9321 54.3158 61.7892 54.2733 62.6474V64.0196H54.3158V72.9809V89.4465V105.956V122.465V131.384C54.3158 131.47 54.3158 131.555 54.2733 131.684H59.743C61.567 131.684 63 133.099 63 134.899C63 136.658 61.567 138.116 59.743 138.116H47.5862H47.4991H34.7782Z" fill="#1A1919"/>
<path d="M47.804 119.249H49.804V121.249H47.804V119.249ZM47.804 109.172V107.172H49.804V109.172H47.804ZM47.804 102.74H49.804V104.74H47.804V102.74ZM47.804 92.663V90.663H49.804V92.663H47.804ZM47.804 86.231H49.804V88.231H47.804V86.231ZM47.804 76.1975V74.1975H49.804V76.1975H47.804ZM47.804 69.7655H49.804V71.7655H47.804V69.7655ZM47.804 63.8045L49.2316 62.4038L49.804 62.9872V63.8045H47.804ZM31.5212 47.2099L30.0936 45.8092L31.5212 44.3542L32.9488 45.8092L31.5212 47.2099ZM15.2396 63.8045H13.2396V62.9872L13.8119 62.4038L15.2396 63.8045ZM15.3267 131.555L16.732 130.132L17.3267 130.719V131.555H15.3267ZM15.3267 131.598L13.9213 133.021L13.3267 132.434V131.598H15.3267ZM15.5009 131.684V133.684H14.6798L14.0956 133.107L15.5009 131.684ZM47.4991 131.684L48.3846 133.477L47.966 133.684H47.4991V131.684ZM47.7169 131.598L49.5012 132.501L49.2001 133.096L48.6024 133.391L47.7169 131.598ZM47.804 125.681V123.681H49.804V125.681H47.804ZM34.7782 146.091V148.091H32.7782V146.091H34.7782ZM28.2653 146.091H30.2653V148.091H28.2653V146.091ZM28.2653 138.116V136.116H30.2653V138.116H28.2653ZM8.72668 131.684H10.7267V133.684H8.72668V131.684ZM9.6392 60.246L8.18326 58.8748L8.19784 58.8593L8.21274 58.8441L9.6392 60.246ZM28.2653 41.293H30.2653V42.1113L29.6918 42.6949L28.2653 41.293ZM34.7782 41.293L33.3501 42.6932L32.7782 42.1099V41.293H34.7782ZM53.3608 60.246L54.7889 58.8458L54.8003 58.8574L54.8115 58.8692L53.3608 60.246ZM54.2733 62.6474H52.2733V62.5979L52.2758 62.5485L54.2733 62.6474ZM54.2733 64.0196V66.0196H52.2733V64.0196H54.2733ZM54.3158 64.0196V62.0196H56.3158V64.0196H54.3158ZM54.2733 131.684V133.684H51.5096L52.3735 131.059L54.2733 131.684ZM36.906 127.681C34.0622 127.681 31.649 125.411 31.649 122.465H35.649C35.649 123.121 36.1889 123.681 36.906 123.681V127.681ZM31.649 122.465C31.649 119.577 34.0455 117.249 36.906 117.249V121.249C36.2057 121.249 35.649 121.835 35.649 122.465H31.649ZM36.906 117.249H47.804V121.249H36.906V117.249ZM45.804 119.249V109.172H49.804V119.249H45.804ZM47.804 111.172H36.906V107.172H47.804V111.172ZM36.906 111.172C34.0631 111.172 31.649 108.904 31.649 105.956H35.649C35.649 106.611 36.1881 107.172 36.906 107.172V111.172ZM31.649 105.956C31.649 103.07 34.0447 100.74 36.906 100.74V104.74C36.2065 104.74 35.649 105.326 35.649 105.956H31.649ZM36.906 100.74H47.804V104.74H36.906V100.74ZM45.804 102.74V92.663H49.804V102.74H45.804ZM47.804 94.663H36.906V90.663H47.804V94.663ZM36.906 94.663C34.0622 94.663 31.649 92.3931 31.649 89.4465H35.649C35.649 90.1024 36.1889 90.663 36.906 90.663V94.663ZM31.649 89.4465C31.649 86.5608 34.0451 84.231 36.906 84.231V88.231C36.2061 88.231 35.649 88.8178 35.649 89.4465H31.649ZM36.906 84.231H47.804V88.231H36.906V84.231ZM45.804 86.231V76.1975H49.804V86.231H45.804ZM47.804 78.1975H36.906V74.1975H47.804V78.1975ZM36.906 78.1975C34.0447 78.1975 31.649 75.8673 31.649 72.9809H35.649C35.649 73.6112 36.2065 74.1975 36.906 74.1975V78.1975ZM31.649 72.9809C31.649 70.0334 34.0631 67.7655 36.906 67.7655V71.7655C36.1881 71.7655 35.649 72.3258 35.649 72.9809H31.649ZM36.906 67.7655H47.804V71.7655H36.906V67.7655ZM45.804 69.7655V64.0196H49.804V69.7655H45.804ZM45.804 64.0196V63.8045H49.804V64.0196H45.804ZM46.3764 65.2052L30.0937 48.6106L32.9488 45.8092L49.2316 62.4038L46.3764 65.2052ZM32.9488 48.6106L16.6672 65.2052L13.8119 62.4038L30.0936 45.8092L32.9488 48.6106ZM17.2396 63.8045V64.0196H13.2396V63.8045H17.2396ZM17.2396 64.0196V131.384H13.2396V64.0196H17.2396ZM17.2396 131.384C17.2396 131.098 17.1756 130.886 17.1494 130.806C17.1155 130.701 17.078 130.619 17.048 130.56C16.9995 130.465 16.9055 130.303 16.732 130.132L13.9213 132.978C13.7043 132.764 13.5668 132.538 13.4855 132.379C13.4378 132.286 13.2396 131.9 13.2396 131.384H17.2396ZM17.3267 131.555V131.598H13.3267V131.555H17.3267ZM16.732 130.175C16.6189 130.063 16.5077 129.981 16.4147 129.923C16.3226 129.864 16.2419 129.824 16.1852 129.799C16.1287 129.774 16.0839 129.757 16.0622 129.749C16.0426 129.742 16.0268 129.737 16.0392 129.741C16.0431 129.743 16.0753 129.753 16.1109 129.766C16.1486 129.779 16.209 129.802 16.2805 129.834C16.3522 129.866 16.4472 129.913 16.5525 129.98C16.6587 130.047 16.7822 130.139 16.9063 130.261L14.0956 133.107C14.2087 133.219 14.3199 133.301 14.4129 133.36C14.505 133.418 14.5856 133.458 14.6424 133.483C14.6988 133.509 14.7437 133.525 14.7653 133.533C14.785 133.54 14.8008 133.545 14.7884 133.541C14.7844 133.54 14.7523 133.529 14.7167 133.516C14.679 133.503 14.6185 133.48 14.5471 133.448C14.4754 133.416 14.3804 133.369 14.2751 133.302C14.1688 133.235 14.0454 133.144 13.9213 133.021L16.732 130.175ZM15.5009 129.684H47.4991V133.684H15.5009V129.684ZM46.6136 129.891C46.6974 129.849 46.7754 129.816 46.8475 129.789C46.9132 129.764 46.9703 129.745 46.9826 129.741C47.003 129.735 46.9785 129.742 46.9482 129.754C46.9116 129.768 46.8717 129.785 46.8314 129.805L48.6024 133.391C48.5185 133.433 48.4405 133.466 48.3685 133.493C48.3028 133.518 48.2456 133.537 48.2333 133.541C48.213 133.548 48.2375 133.54 48.2678 133.528C48.3044 133.514 48.3443 133.497 48.3846 133.477L46.6136 129.891ZM45.9325 130.695C45.9736 130.614 46.0116 130.549 46.0245 130.527C46.0474 130.488 46.0207 130.532 45.9955 130.582C45.9625 130.646 45.9094 130.761 45.8677 130.913C45.8245 131.07 45.804 131.229 45.804 131.384H49.804C49.804 131.582 49.778 131.778 49.7253 131.971C49.6741 132.157 49.6073 132.304 49.558 132.401C49.5341 132.447 49.5126 132.486 49.4991 132.509C49.4872 132.53 49.474 132.552 49.4732 132.554C49.4657 132.566 49.4819 132.54 49.5012 132.501L45.9325 130.695ZM45.804 131.384V125.681H49.804V131.384H45.804ZM47.804 127.681H36.906V123.681H47.804V127.681ZM36.7782 138.116V146.091H32.7782V138.116H36.7782ZM34.7782 144.091H49.1499V148.091H34.7782V144.091ZM49.1499 144.091C52.0541 144.091 54.4058 146.379 54.4058 149.308H50.4058C50.4058 148.634 49.8914 148.091 49.1499 148.091V144.091ZM54.4058 149.308C54.4058 152.177 52.0709 154.523 49.1499 154.523V150.523C49.8746 150.523 50.4058 149.955 50.4058 149.308H54.4058ZM49.1499 154.523H13.8501V150.523H49.1499V154.523ZM13.8501 154.523C10.9901 154.523 8.5942 152.195 8.5942 149.308H12.5942C12.5942 149.938 13.1514 150.523 13.8501 150.523V154.523ZM8.5942 149.308C8.5942 146.362 11.007 144.091 13.8501 144.091V148.091C13.1346 148.091 12.5942 148.651 12.5942 149.308H8.5942ZM13.8501 144.091H28.2653V148.091H13.8501V144.091ZM26.2653 146.091V138.116H30.2653V146.091H26.2653ZM28.2653 140.116H15.5434V136.116H28.2653V140.116ZM15.5434 140.116H15.4573V136.116H15.5434V140.116ZM15.4573 140.116H3.2559V136.116H15.4573V140.116ZM3.2559 140.116C0.395222 140.116 -2 137.785 -2 134.899H2C2 135.53 2.55796 136.116 3.2559 136.116V140.116ZM-2 134.899C-2 131.954 0.413329 129.684 3.2559 129.684V133.684C2.53985 133.684 2 134.245 2 134.899H-2ZM3.2559 129.684H8.72668V133.684H3.2559V129.684ZM6.72668 131.684C6.72668 131.684 6.72668 131.684 6.72668 131.683C6.72668 131.683 6.72668 131.683 6.72668 131.683C6.72668 131.682 6.72668 131.682 6.72668 131.682C6.72668 131.682 6.72668 131.681 6.72668 131.681C6.72668 131.681 6.72668 131.681 6.72668 131.68C6.72668 131.68 6.72668 131.68 6.72668 131.68C6.72668 131.679 6.72668 131.679 6.72668 131.679C6.72668 131.679 6.72668 131.678 6.72668 131.678C6.72668 131.678 6.72668 131.678 6.72668 131.677C6.72668 131.677 6.72668 131.677 6.72668 131.677C6.72668 131.676 6.72668 131.676 6.72668 131.676C6.72668 131.676 6.72668 131.675 6.72668 131.675C6.72668 131.675 6.72668 131.675 6.72668 131.674C6.72668 131.674 6.72668 131.674 6.72668 131.674C6.72668 131.673 6.72668 131.673 6.72668 131.673C6.72668 131.673 6.72668 131.672 6.72668 131.672C6.72668 131.672 6.72668 131.672 6.72668 131.671C6.72668 131.671 6.72668 131.671 6.72668 131.671C6.72668 131.67 6.72668 131.67 6.72668 131.67C6.72668 131.67 6.72668 131.669 6.72668 131.669C6.72668 131.669 6.72668 131.669 6.72668 131.668C6.72668 131.668 6.72668 131.668 6.72668 131.668C6.72668 131.667 6.72668 131.667 6.72668 131.667C6.72668 131.667 6.72668 131.666 6.72668 131.666C6.72668 131.666 6.72668 131.666 6.72668 131.666C6.72668 131.665 6.72668 131.665 6.72668 131.665C6.72668 131.665 6.72668 131.664 6.72668 131.664C6.72668 131.664 6.72668 131.664 6.72668 131.663C6.72668 131.663 6.72668 131.663 6.72668 131.663C6.72668 131.662 6.72668 131.662 6.72668 131.662C6.72668 131.662 6.72668 131.661 6.72668 131.661C6.72668 131.661 6.72668 131.661 6.72668 131.66C6.72668 131.66 6.72668 131.66 6.72668 131.66C6.72668 131.659 6.72668 131.659 6.72668 131.659C6.72668 131.659 6.72668 131.658 6.72668 131.658C6.72668 131.658 6.72668 131.658 6.72668 131.658C6.72668 131.657 6.72668 131.657 6.72668 131.657C6.72668 131.657 6.72668 131.656 6.72668 131.656C6.72668 131.656 6.72668 131.656 6.72668 131.655C6.72668 131.655 6.72668 131.655 6.72668 131.655C6.72668 131.654 6.72668 131.654 6.72668 131.654C6.72668 131.654 6.72668 131.653 6.72668 131.653C6.72668 131.653 6.72668 131.653 6.72668 131.653C6.72668 131.652 6.72668 131.652 6.72668 131.652C6.72668 131.652 6.72668 131.651 6.72668 131.651C6.72668 131.651 6.72668 131.651 6.72668 131.65C6.72668 131.65 6.72668 131.65 6.72668 131.65C6.72668 131.649 6.72668 131.649 6.72668 131.649C6.72668 131.649 6.72668 131.648 6.72668 131.648C6.72668 131.648 6.72668 131.648 6.72668 131.648C6.72668 131.647 6.72668 131.647 6.72668 131.647C6.72668 131.647 6.72668 131.646 6.72668 131.646C6.72668 131.646 6.72668 131.646 6.72668 131.645C6.72668 131.645 6.72668 131.645 6.72668 131.645C6.72668 131.644 6.72668 131.644 6.72668 131.644C6.72668 131.644 6.72668 131.644 6.72668 131.643C6.72668 131.643 6.72668 131.643 6.72668 131.643C6.72668 131.642 6.72668 131.642 6.72668 131.642C6.72668 131.642 6.72668 131.641 6.72668 131.641C6.72668 131.641 6.72668 131.641 6.72668 131.64C6.72668 131.64 6.72668 131.64 6.72668 131.64C6.72668 131.64 6.72668 131.639 6.72668 131.639C6.72668 131.639 6.72668 131.639 6.72668 131.638C6.72668 131.638 6.72668 131.638 6.72668 131.638C6.72668 131.637 6.72668 131.637 6.72668 131.637C6.72668 131.637 6.72668 131.637 6.72668 131.636C6.72668 131.636 6.72668 131.636 6.72668 131.636C6.72668 131.635 6.72668 131.635 6.72668 131.635C6.72668 131.635 6.72668 131.634 6.72668 131.634C6.72668 131.634 6.72668 131.634 6.72668 131.634C6.72668 131.633 6.72668 131.633 6.72668 131.633C6.72668 131.633 6.72668 131.632 6.72668 131.632C6.72668 131.632 6.72668 131.632 6.72668 131.631C6.72668 131.631 6.72668 131.631 6.72668 131.631C6.72668 131.631 6.72668 131.63 6.72668 131.63C6.72668 131.63 6.72668 131.63 6.72668 131.629C6.72668 131.629 6.72668 131.629 6.72668 131.629C6.72668 131.629 6.72668 131.628 6.72668 131.628C6.72668 131.628 6.72668 131.628 6.72668 131.627C6.72668 131.627 6.72668 131.627 6.72668 131.627C6.72668 131.626 6.72668 131.626 6.72668 131.626C6.72668 131.626 6.72668 131.626 6.72668 131.625C6.72668 131.625 6.72668 131.625 6.72668 131.625C6.72668 131.624 6.72668 131.624 6.72668 131.624C6.72668 131.624 6.72668 131.624 6.72668 131.623C6.72668 131.623 6.72668 131.623 6.72668 131.623C6.72668 131.622 6.72668 131.622 6.72668 131.622C6.72668 131.622 6.72668 131.621 6.72668 131.621C6.72668 131.621 6.72668 131.621 6.72668 131.621C6.72668 131.62 6.72668 131.62 6.72668 131.62C6.72668 131.62 6.72668 131.619 6.72668 131.619C6.72668 131.619 6.72668 131.619 6.72668 131.619C6.72668 131.618 6.72668 131.618 6.72668 131.618C6.72668 131.618 6.72668 131.617 6.72668 131.617C6.72668 131.617 6.72668 131.617 6.72668 131.617C6.72668 131.616 6.72668 131.616 6.72668 131.616C6.72668 131.616 6.72668 131.615 6.72668 131.615C6.72668 131.615 6.72668 131.615 6.72668 131.615C6.72668 131.614 6.72668 131.614 6.72668 131.614C6.72668 131.614 6.72668 131.613 6.72668 131.613C6.72668 131.613 6.72668 131.613 6.72668 131.613C6.72668 131.612 6.72668 131.612 6.72668 131.612C6.72668 131.612 6.72668 131.611 6.72668 131.611C6.72668 131.611 6.72668 131.611 6.72668 131.611C6.72668 131.61 6.72668 131.61 6.72668 131.61C6.72668 131.61 6.72668 131.609 6.72668 131.609C6.72668 131.609 6.72668 131.609 6.72668 131.609C6.72668 131.608 6.72668 131.608 6.72668 131.608C6.72668 131.608 6.72668 131.607 6.72668 131.607C6.72668 131.607 6.72668 131.607 6.72668 131.607C6.72668 131.606 6.72668 131.606 6.72668 131.606C6.72668 131.606 6.72668 131.606 6.72668 131.605C6.72668 131.605 6.72668 131.605 6.72668 131.605C6.72668 131.604 6.72668 131.604 6.72668 131.604C6.72668 131.604 6.72668 131.604 6.72668 131.603C6.72668 131.603 6.72668 131.603 6.72668 131.603C6.72668 131.602 6.72668 131.602 6.72668 131.602C6.72668 131.602 6.72668 131.602 6.72668 131.601C6.72668 131.601 6.72668 131.601 6.72668 131.601C6.72668 131.6 6.72668 131.6 6.72668 131.6C6.72668 131.6 6.72668 131.6 6.72668 131.599C6.72668 131.599 6.72668 131.599 6.72668 131.599C6.72668 131.599 6.72668 131.598 6.72668 131.598C6.72668 131.598 6.72668 131.598 6.72668 131.597C6.72668 131.597 6.72668 131.597 6.72668 131.597C6.72668 131.597 6.72668 131.596 6.72668 131.596C6.72668 131.596 6.72668 131.596 6.72668 131.596C6.72668 131.595 6.72668 131.595 6.72668 131.595C6.72668 131.595 6.72668 131.594 6.72668 131.594C6.72668 131.594 6.72668 131.594 6.72668 131.594C6.72668 131.593 6.72668 131.593 6.72668 131.593C6.72668 131.593 6.72668 131.593 6.72668 131.592C6.72668 131.592 6.72668 131.592 6.72668 131.592C6.72668 131.591 6.72668 131.591 6.72668 131.591C6.72668 131.591 6.72668 131.591 6.72668 131.59C6.72668 131.59 6.72668 131.59 6.72668 131.59C6.72668 131.59 6.72668 131.589 6.72668 131.589C6.72668 131.589 6.72668 131.589 6.72668 131.588C6.72668 131.588 6.72668 131.588 6.72668 131.588C6.72668 131.588 6.72668 131.587 6.72668 131.587C6.72668 131.587 6.72668 131.587 6.72668 131.587C6.72668 131.586 6.72668 131.586 6.72668 131.586C6.72668 131.586 6.72668 131.586 6.72668 131.585C6.72668 131.585 6.72668 131.585 6.72668 131.585C6.72668 131.584 6.72668 131.584 6.72668 131.584C6.72668 131.584 6.72668 131.584 6.72668 131.583C6.72668 131.583 6.72668 131.583 6.72668 131.583C6.72668 131.583 6.72668 131.582 6.72668 131.582C6.72668 131.582 6.72668 131.582 6.72668 131.582C6.72668 131.581 6.72668 131.581 6.72668 131.581C6.72668 131.581 6.72668 131.58 6.72668 131.58C6.72668 131.58 6.72668 131.58 6.72668 131.58C6.72668 131.579 6.72668 131.579 6.72668 131.579C6.72668 131.579 6.72668 131.579 6.72668 131.578C6.72668 131.578 6.72668 131.578 6.72668 131.578C6.72668 131.578 6.72668 131.577 6.72668 131.577C6.72668 131.577 6.72668 131.577 6.72668 131.577C6.72668 131.576 6.72668 131.576 6.72668 131.576C6.72668 131.576 6.72668 131.575 6.72668 131.575C6.72668 131.575 6.72668 131.575 6.72668 131.575C6.72668 131.574 6.72668 131.574 6.72668 131.574C6.72668 131.574 6.72668 131.574 6.72668 131.573C6.72668 131.573 6.72668 131.573 6.72668 131.573C6.72668 131.573 6.72668 131.572 6.72668 131.572C6.72668 131.572 6.72668 131.572 6.72668 131.572C6.72668 131.571 6.72668 131.571 6.72668 131.571C6.72668 131.571 6.72668 131.571 6.72668 131.57C6.72668 131.57 6.72668 131.57 6.72668 131.57C6.72668 131.57 6.72668 131.569 6.72668 131.569C6.72668 131.569 6.72668 131.569 6.72668 131.569C6.72668 131.568 6.72668 131.568 6.72668 131.568C6.72668 131.568 6.72668 131.567 6.72668 131.567C6.72668 131.567 6.72668 131.567 6.72668 131.567C6.72668 131.566 6.72668 131.566 6.72668 131.566C6.72668 131.566 6.72668 131.566 6.72668 131.565C6.72668 131.565 6.72668 131.565 6.72668 131.565C6.72668 131.565 6.72668 131.564 6.72668 131.564C6.72668 131.564 6.72668 131.564 6.72668 131.564C6.72668 131.563 6.72668 131.563 6.72668 131.563C6.72668 131.563 6.72668 131.563 6.72668 131.562C6.72668 131.562 6.72668 131.562 6.72668 131.562C6.72668 131.562 6.72668 131.561 6.72668 131.561C6.72668 131.561 6.72668 131.561 6.72668 131.561C6.72668 131.56 6.72668 131.56 6.72668 131.56C6.72668 131.56 6.72668 131.56 6.72668 131.559C6.72668 131.559 6.72668 131.559 6.72668 131.559C6.72668 131.559 6.72668 131.558 6.72668 131.558C6.72668 131.558 6.72668 131.558 6.72668 131.558C6.72668 131.557 6.72668 131.557 6.72668 131.557C6.72668 131.557 6.72668 131.557 6.72668 131.556C6.72668 131.556 6.72668 131.556 6.72668 131.556C6.72668 131.556 6.72668 131.555 6.72668 131.555C6.72668 131.555 6.72668 131.555 6.72668 131.555C6.72668 131.554 6.72668 131.554 6.72668 131.554C6.72668 131.554 6.72668 131.554 6.72668 131.553C6.72668 131.553 6.72668 131.553 6.72668 131.553C6.72668 131.553 6.72668 131.552 6.72668 131.552C6.72668 131.552 6.72668 131.552 6.72668 131.552C6.72668 131.551 6.72668 131.551 6.72668 131.551C6.72668 131.551 6.72668 131.551 6.72668 131.55C6.72668 131.55 6.72668 131.55 6.72668 131.55C6.72668 131.55 6.72668 131.549 6.72668 131.549C6.72668 131.549 6.72668 131.549 6.72668 131.549C6.72668 131.548 6.72668 131.548 6.72668 131.548C6.72668 131.548 6.72668 131.548 6.72668 131.547C6.72668 131.547 6.72668 131.547 6.72668 131.547C6.72668 131.547 6.72668 131.546 6.72668 131.546C6.72668 131.546 6.72668 131.546 6.72668 131.546C6.72668 131.545 6.72668 131.545 6.72668 131.545C6.72668 131.545 6.72668 131.545 6.72668 131.544C6.72668 131.544 6.72668 131.544 6.72668 131.544C6.72668 131.544 6.72668 131.543 6.72668 131.543C6.72668 131.543 6.72668 131.543 6.72668 131.543C6.72668 131.543 6.72668 131.542 6.72668 131.542C6.72668 131.542 6.72668 131.542 6.72668 131.542C6.72668 131.541 6.72668 131.541 6.72668 131.541C6.72668 131.541 6.72668 131.541 6.72668 131.54C6.72668 131.54 6.72668 131.54 6.72668 131.54C6.72668 131.54 6.72668 131.539 6.72668 131.539C6.72668 131.539 6.72668 131.539 6.72668 131.539C6.72668 131.538 6.72668 131.538 6.72668 131.538C6.72668 131.538 6.72668 131.538 6.72668 131.537C6.72668 131.537 6.72668 131.537 6.72668 131.537C6.72668 131.537 6.72668 131.536 6.72668 131.536C6.72668 131.536 6.72668 131.536 6.72668 131.536C6.72668 131.536 6.72668 131.535 6.72668 131.535C6.72668 131.535 6.72668 131.535 6.72668 131.535C6.72668 131.534 6.72668 131.534 6.72668 131.534C6.72668 131.534 6.72668 131.534 6.72668 131.533C6.72668 131.533 6.72668 131.533 6.72668 131.533C6.72668 131.533 6.72668 131.532 6.72668 131.532C6.72668 131.532 6.72668 131.532 6.72668 131.532C6.72668 131.531 6.72668 131.531 6.72668 131.531C6.72668 131.531 6.72668 131.531 6.72668 131.53C6.72668 131.53 6.72668 131.53 6.72668 131.53C6.72668 131.53 6.72668 131.53 6.72668 131.529C6.72668 131.529 6.72668 131.529 6.72668 131.529C6.72668 131.529 6.72668 131.528 6.72668 131.528C6.72668 131.528 6.72668 131.528 6.72668 131.528C6.72668 131.527 6.72668 131.527 6.72668 131.527C6.72668 131.527 6.72668 131.527 6.72668 131.526C6.72668 131.526 6.72668 131.526 6.72668 131.526C6.72668 131.526 6.72668 131.526 6.72668 131.525C6.72668 131.525 6.72668 131.525 6.72668 131.525C6.72668 131.525 6.72668 131.524 6.72668 131.524C6.72668 131.524 6.72668 131.524 6.72668 131.524C6.72668 131.523 6.72668 131.523 6.72668 131.523C6.72668 131.523 6.72668 131.523 6.72668 131.522C6.72668 131.522 6.72668 131.522 6.72668 131.522C6.72668 131.522 6.72668 131.522 6.72668 131.521C6.72668 131.521 6.72668 131.521 6.72668 131.521C6.72668 131.521 6.72668 131.52 6.72668 131.52C6.72668 131.52 6.72668 131.52 6.72668 131.52C6.72668 131.519 6.72668 131.519 6.72668 131.519C6.72668 131.519 6.72668 131.519 6.72668 131.519C6.72668 131.518 6.72668 131.518 6.72668 131.518C6.72668 131.518 6.72668 131.518 6.72668 131.517C6.72668 131.517 6.72668 131.517 6.72668 131.517C6.72668 131.517 6.72668 131.516 6.72668 131.516C6.72668 131.516 6.72668 131.516 6.72668 131.516C6.72668 131.516 6.72668 131.515 6.72668 131.515C6.72668 131.515 6.72668 131.515 6.72668 131.515C6.72668 131.514 6.72668 131.514 6.72668 131.514C6.72668 131.514 6.72668 131.514 6.72668 131.513C6.72668 131.513 6.72668 131.513 6.72668 131.513C6.72668 131.513 6.72668 131.513 6.72668 131.512C6.72668 131.512 6.72668 131.512 6.72668 131.512C6.72668 131.512 6.72668 131.511 6.72668 131.511C6.72668 131.511 6.72668 131.511 6.72668 131.511C6.72668 131.51 6.72668 131.51 6.72668 131.51C6.72668 131.51 6.72668 131.51 6.72668 131.51C6.72668 131.509 6.72668 131.509 6.72668 131.509C6.72668 131.509 6.72668 131.509 6.72668 131.508C6.72668 131.508 6.72668 131.508 6.72668 131.508C6.72668 131.508 6.72668 131.508 6.72668 131.507C6.72668 131.507 6.72668 131.507 6.72668 131.507C6.72668 131.507 6.72668 131.506 6.72668 131.506C6.72668 131.506 6.72668 131.506 6.72668 131.506C6.72668 131.505 6.72668 131.505 6.72668 131.505C6.72668 131.505 6.72668 131.505 6.72668 131.505C6.72668 131.504 6.72668 131.504 6.72668 131.504C6.72668 131.504 6.72668 131.504 6.72668 131.503C6.72668 131.503 6.72668 131.503 6.72668 131.503C6.72668 131.503 6.72668 131.503 6.72668 131.502C6.72668 131.502 6.72668 131.502 6.72668 131.502C6.72668 131.502 6.72668 131.501 6.72668 131.501C6.72668 131.501 6.72668 131.501 6.72668 131.501C6.72668 131.501 6.72668 131.5 6.72668 131.5C6.72668 131.5 6.72668 131.5 6.72668 131.5C6.72668 131.499 6.72668 131.499 6.72668 131.499C6.72668 131.499 6.72668 131.499 6.72668 131.499C6.72668 131.498 6.72668 131.498 6.72668 131.498C6.72668 131.498 6.72668 131.498 6.72668 131.497C6.72668 131.497 6.72668 131.497 6.72668 131.497C6.72668 131.497 6.72668 131.497 6.72668 131.496C6.72668 131.496 6.72668 131.496 6.72668 131.496C6.72668 131.496 6.72668 131.495 6.72668 131.495C6.72668 131.495 6.72668 131.495 6.72668 131.495C6.72668 131.495 6.72668 131.494 6.72668 131.494C6.72668 131.494 6.72668 131.494 6.72668 131.494C6.72668 131.493 6.72668 131.493 6.72668 131.493C6.72668 131.493 6.72668 131.493 6.72668 131.493C6.72668 131.492 6.72668 131.492 6.72668 131.492C6.72668 131.492 6.72668 131.492 6.72668 131.491C6.72668 131.491 6.72668 131.491 6.72668 131.491C6.72668 131.491 6.72668 131.491 6.72668 131.49C6.72668 131.49 6.72668 131.49 6.72668 131.49C6.72668 131.49 6.72668 131.489 6.72668 131.489C6.72668 131.489 6.72668 131.489 6.72668 131.489C6.72668 131.489 6.72668 131.488 6.72668 131.488C6.72668 131.488 6.72668 131.488 6.72668 131.488C6.72668 131.487 6.72668 131.487 6.72668 131.487C6.72668 131.487 6.72668 131.487 6.72668 131.487C6.72668 131.486 6.72668 131.486 6.72668 131.486C6.72668 131.486 6.72668 131.486 6.72668 131.485C6.72668 131.485 6.72668 131.485 6.72668 131.485C6.72668 131.485 6.72668 131.485 6.72668 131.484C6.72668 131.484 6.72668 131.484 6.72668 131.484C6.72668 131.484 6.72668 131.484 6.72668 131.483C6.72668 131.483 6.72668 131.483 6.72668 131.483C6.72668 131.483 6.72668 131.482 6.72668 131.482C6.72668 131.482 6.72668 131.482 6.72668 131.482C6.72668 131.482 6.72668 131.481 6.72668 131.481C6.72668 131.481 6.72668 131.481 6.72668 131.481C6.72668 131.48 6.72668 131.48 6.72668 131.48C6.72668 131.48 6.72668 131.48 6.72668 131.48C6.72668 131.479 6.72668 131.479 6.72668 131.479C6.72668 131.479 6.72668 131.479 6.72668 131.479C6.72668 131.478 6.72668 131.478 6.72668 131.478C6.72668 131.478 6.72668 131.478 6.72668 131.477C6.72668 131.477 6.72668 131.477 6.72668 131.477C6.72668 131.477 6.72668 131.477 6.72668 131.476C6.72668 131.476 6.72668 131.476 6.72668 131.476C6.72668 131.476 6.72668 131.475 6.72668 131.475C6.72668 131.475 6.72668 131.475 6.72668 131.475C6.72668 131.475 6.72668 131.474 6.72668 131.474C6.72668 131.474 6.72668 131.474 6.72668 131.474C6.72668 131.474 6.72668 131.473 6.72668 131.473C6.72668 131.473 6.72668 131.473 6.72668 131.473C6.72668 131.472 6.72668 131.472 6.72668 131.472C6.72668 131.472 6.72668 131.472 6.72668 131.472C6.72668 131.471 6.72668 131.471 6.72668 131.471C6.72668 131.471 6.72668 131.471 6.72668 131.471C6.72668 131.47 6.72668 131.47 6.72668 131.47C6.72668 131.47 6.72668 131.47 6.72668 131.469C6.72668 131.469 6.72668 131.469 6.72668 131.469C6.72668 131.469 6.72668 131.469 6.72668 131.468C6.72668 131.468 6.72668 131.468 6.72668 131.468C6.72668 131.468 6.72668 131.468 6.72668 131.467C6.72668 131.467 6.72668 131.467 6.72668 131.467C6.72668 131.467 6.72668 131.466 6.72668 131.466C6.72668 131.466 6.72668 131.466 6.72668 131.466C6.72668 131.466 6.72668 131.465 6.72668 131.465C6.72668 131.465 6.72668 131.465 6.72668 131.465C6.72668 131.465 6.72668 131.464 6.72668 131.464C6.72668 131.464 6.72668 131.464 6.72668 131.464C6.72668 131.464 6.72668 131.463 6.72668 131.463C6.72668 131.463 6.72668 131.463 6.72668 131.463C6.72668 131.462 6.72668 131.462 6.72668 131.462C6.72668 131.462 6.72668 131.462 6.72668 131.462C6.72668 131.461 6.72668 131.461 6.72668 131.461C6.72668 131.461 6.72668 131.461 6.72668 131.461C6.72668 131.46 6.72668 131.46 6.72668 131.46C6.72668 131.46 6.72668 131.46 6.72668 131.46C6.72668 131.459 6.72668 131.459 6.72668 131.459C6.72668 131.459 6.72668 131.459 6.72668 131.458C6.72668 131.458 6.72668 131.458 6.72668 131.458C6.72668 131.458 6.72668 131.458 6.72668 131.457C6.72668 131.457 6.72668 131.457 6.72668 131.457C6.72668 131.457 6.72668 131.457 6.72668 131.456C6.72668 131.456 6.72668 131.456 6.72668 131.456C6.72668 131.456 6.72668 131.456 6.72668 131.455C6.72668 131.455 6.72668 131.455 6.72668 131.455C6.72668 131.455 6.72668 131.454 6.72668 131.454C6.72668 131.454 6.72668 131.454 6.72668 131.454C6.72668 131.454 6.72668 131.453 6.72668 131.453C6.72668 131.453 6.72668 131.453 6.72668 131.453C6.72668 131.453 6.72668 131.452 6.72668 131.452C6.72668 131.452 6.72668 131.452 6.72668 131.452C6.72668 131.452 6.72668 131.451 6.72668 131.451C6.72668 131.451 6.72668 131.451 6.72668 131.451C6.72668 131.45 6.72668 131.45 6.72668 131.45C6.72668 131.45 6.72668 131.45 6.72668 131.45C6.72668 131.449 6.72668 131.449 6.72668 131.449C6.72668 131.449 6.72668 131.449 6.72668 131.449C6.72668 131.448 6.72668 131.448 6.72668 131.448C6.72668 131.448 6.72668 131.448 6.72668 131.448C6.72668 131.447 6.72668 131.447 6.72668 131.447C6.72668 131.447 6.72668 131.447 6.72668 131.447C6.72668 131.446 6.72668 131.446 6.72668 131.446C6.72668 131.446 6.72668 131.446 6.72668 131.445C6.72668 131.445 6.72668 131.445 6.72668 131.445C6.72668 131.445 6.72668 131.445 6.72668 131.444C6.72668 131.444 6.72668 131.444 6.72668 131.444C6.72668 131.444 6.72668 131.444 6.72668 131.443C6.72668 131.443 6.72668 131.443 6.72668 131.443C6.72668 131.443 6.72668 131.443 6.72668 131.442C6.72668 131.442 6.72668 131.442 6.72668 131.442C6.72668 131.442 6.72668 131.442 6.72668 131.441C6.72668 131.441 6.72668 131.441 6.72668 131.441C6.72668 131.441 6.72668 131.441 6.72668 131.44C6.72668 131.44 6.72668 131.44 6.72668 131.44C6.72668 131.44 6.72668 131.439 6.72668 131.439C6.72668 131.439 6.72668 131.439 6.72668 131.439C6.72668 131.439 6.72668 131.438 6.72668 131.438C6.72668 131.438 6.72668 131.438 6.72668 131.438C6.72668 131.438 6.72668 131.437 6.72668 131.437C6.72668 131.437 6.72668 131.437 6.72668 131.437C6.72668 131.437 6.72668 131.436 6.72668 131.436C6.72668 131.436 6.72668 131.436 6.72668 131.436C6.72668 131.436 6.72668 131.435 6.72668 131.435C6.72668 131.435 6.72668 131.435 6.72668 131.435C6.72668 131.435 6.72668 131.434 6.72668 131.434C6.72668 131.434 6.72668 131.434 6.72668 131.434C6.72668 131.434 6.72668 131.433 6.72668 131.433C6.72668 131.433 6.72668 131.433 6.72668 131.433C6.72668 131.432 6.72668 131.432 6.72668 131.432C6.72668 131.432 6.72668 131.432 6.72668 131.432C6.72668 131.431 6.72668 131.431 6.72668 131.431C6.72668 131.431 6.72668 131.431 6.72668 131.431C6.72668 131.43 6.72668 131.43 6.72668 131.43C6.72668 131.43 6.72668 131.43 6.72668 131.43C6.72668 131.429 6.72668 131.429 6.72668 131.429C6.72668 131.429 6.72668 131.429 6.72668 131.429C6.72668 131.428 6.72668 131.428 6.72668 131.428C6.72668 131.428 6.72668 131.428 6.72668 131.428C6.72668 131.427 6.72668 131.427 6.72668 131.427C6.72668 131.427 6.72668 131.427 6.72668 131.427C6.72668 131.426 6.72668 131.426 6.72668 131.426C6.72668 131.426 6.72668 131.426 6.72668 131.426C6.72668 131.425 6.72668 131.425 6.72668 131.425C6.72668 131.425 6.72668 131.425 6.72668 131.424C6.72668 131.424 6.72668 131.424 6.72668 131.424C6.72668 131.424 6.72668 131.424 6.72668 131.423C6.72668 131.423 6.72668 131.423 6.72668 131.423C6.72668 131.423 6.72668 131.423 6.72668 131.422C6.72668 131.422 6.72668 131.422 6.72668 131.422C6.72668 131.422 6.72668 131.422 6.72668 131.421C6.72668 131.421 6.72668 131.421 6.72668 131.421C6.72668 131.421 6.72668 131.421 6.72668 131.42C6.72668 131.42 6.72668 131.42 6.72668 131.42C6.72668 131.42 6.72668 131.42 6.72668 131.419C6.72668 131.419 6.72668 131.419 6.72668 131.419C6.72668 131.419 6.72668 131.419 6.72668 131.418C6.72668 131.418 6.72668 131.418 6.72668 131.418C6.72668 131.418 6.72668 131.418 6.72668 131.417C6.72668 131.417 6.72668 131.417 6.72668 131.417C6.72668 131.417 6.72668 131.417 6.72668 131.416C6.72668 131.416 6.72668 131.416 6.72668 131.416C6.72668 131.416 6.72668 131.416 6.72668 131.415C6.72668 131.415 6.72668 131.415 6.72668 131.415C6.72668 131.415 6.72668 131.415 6.72668 131.414C6.72668 131.414 6.72668 131.414 6.72668 131.414C6.72668 131.414 6.72668 131.414 6.72668 131.413C6.72668 131.413 6.72668 131.413 6.72668 131.413C6.72668 131.413 6.72668 131.412 6.72668 131.412C6.72668 131.412 6.72668 131.412 6.72668 131.412C6.72668 131.412 6.72668 131.411 6.72668 131.411C6.72668 131.411 6.72668 131.411 6.72668 131.411C6.72668 131.411 6.72668 131.41 6.72668 131.41C6.72668 131.41 6.72668 131.41 6.72668 131.41C6.72668 131.41 6.72668 131.409 6.72668 131.409C6.72668 131.409 6.72668 131.409 6.72668 131.409C6.72668 131.409 6.72668 131.408 6.72668 131.408C6.72668 131.408 6.72668 131.408 6.72668 131.408C6.72668 131.408 6.72668 131.407 6.72668 131.407C6.72668 131.407 6.72668 131.407 6.72668 131.407C6.72668 131.407 6.72668 131.406 6.72668 131.406C6.72668 131.406 6.72668 131.406 6.72668 131.406C6.72668 131.406 6.72668 131.405 6.72668 131.405C6.72668 131.405 6.72668 131.405 6.72668 131.405C6.72668 131.405 6.72668 131.404 6.72668 131.404C6.72668 131.404 6.72668 131.404 6.72668 131.404C6.72668 131.404 6.72668 131.403 6.72668 131.403C6.72668 131.403 6.72668 131.403 6.72668 131.403C6.72668 131.403 6.72668 131.402 6.72668 131.402C6.72668 131.402 6.72668 131.402 6.72668 131.402C6.72668 131.402 6.72668 131.401 6.72668 131.401C6.72668 131.401 6.72668 131.401 6.72668 131.401C6.72668 131.401 6.72668 131.4 6.72668 131.4C6.72668 131.4 6.72668 131.4 6.72668 131.4C6.72668 131.4 6.72668 131.399 6.72668 131.399C6.72668 131.399 6.72668 131.399 6.72668 131.399C6.72668 131.399 6.72668 131.398 6.72668 131.398C6.72668 131.398 6.72668 131.398 6.72668 131.398C6.72668 131.398 6.72668 131.397 6.72668 131.397C6.72668 131.397 6.72668 131.397 6.72668 131.397C6.72668 131.397 6.72668 131.396 6.72668 131.396C6.72668 131.396 6.72668 131.396 6.72668 131.396C6.72668 131.396 6.72668 131.395 6.72668 131.395C6.72668 131.395 6.72668 131.395 6.72668 131.395C6.72668 131.394 6.72668 131.394 6.72668 131.394C6.72668 131.394 6.72668 131.394 6.72668 131.394C6.72668 131.393 6.72668 131.393 6.72668 131.393C6.72668 131.393 6.72668 131.393 6.72668 131.393C6.72668 131.392 6.72668 131.392 6.72668 131.392C6.72668 131.392 6.72668 131.392 6.72668 131.392C6.72668 131.391 6.72668 131.391 6.72668 131.391C6.72668 131.391 6.72668 131.391 6.72668 131.391C6.72668 131.39 6.72668 131.39 6.72668 131.39C6.72668 131.39 6.72668 131.39 6.72668 131.39C6.72668 131.389 6.72668 131.389 6.72668 131.389C6.72668 131.389 6.72668 131.389 6.72668 131.389C6.72668 131.388 6.72668 131.388 6.72668 131.388C6.72668 131.388 6.72668 131.388 6.72668 131.388C6.72668 131.387 6.72668 131.387 6.72668 131.387C6.72668 131.387 6.72668 131.387 6.72668 131.387C6.72668 131.386 6.72668 131.386 6.72668 131.386C6.72668 131.386 6.72668 131.386 6.72668 131.386C6.72668 131.385 6.72668 131.385 6.72668 131.385C6.72668 131.385 6.72668 131.385 6.72668 131.385C6.72668 131.384 6.72668 131.384 6.72668 131.384H10.7267C10.7267 131.384 10.7267 131.384 10.7267 131.385C10.7267 131.385 10.7267 131.385 10.7267 131.385C10.7267 131.385 10.7267 131.385 10.7267 131.386C10.7267 131.386 10.7267 131.386 10.7267 131.386C10.7267 131.386 10.7267 131.386 10.7267 131.387C10.7267 131.387 10.7267 131.387 10.7267 131.387C10.7267 131.387 10.7267 131.387 10.7267 131.388C10.7267 131.388 10.7267 131.388 10.7267 131.388C10.7267 131.388 10.7267 131.388 10.7267 131.389C10.7267 131.389 10.7267 131.389 10.7267 131.389C10.7267 131.389 10.7267 131.389 10.7267 131.39C10.7267 131.39 10.7267 131.39 10.7267 131.39C10.7267 131.39 10.7267 131.39 10.7267 131.391C10.7267 131.391 10.7267 131.391 10.7267 131.391C10.7267 131.391 10.7267 131.391 10.7267 131.392C10.7267 131.392 10.7267 131.392 10.7267 131.392C10.7267 131.392 10.7267 131.392 10.7267 131.393C10.7267 131.393 10.7267 131.393 10.7267 131.393C10.7267 131.393 10.7267 131.393 10.7267 131.394C10.7267 131.394 10.7267 131.394 10.7267 131.394C10.7267 131.394 10.7267 131.394 10.7267 131.395C10.7267 131.395 10.7267 131.395 10.7267 131.395C10.7267 131.395 10.7267 131.396 10.7267 131.396C10.7267 131.396 10.7267 131.396 10.7267 131.396C10.7267 131.396 10.7267 131.397 10.7267 131.397C10.7267 131.397 10.7267 131.397 10.7267 131.397C10.7267 131.397 10.7267 131.398 10.7267 131.398C10.7267 131.398 10.7267 131.398 10.7267 131.398C10.7267 131.398 10.7267 131.399 10.7267 131.399C10.7267 131.399 10.7267 131.399 10.7267 131.399C10.7267 131.399 10.7267 131.4 10.7267 131.4C10.7267 131.4 10.7267 131.4 10.7267 131.4C10.7267 131.4 10.7267 131.401 10.7267 131.401C10.7267 131.401 10.7267 131.401 10.7267 131.401C10.7267 131.401 10.7267 131.402 10.7267 131.402C10.7267 131.402 10.7267 131.402 10.7267 131.402C10.7267 131.402 10.7267 131.403 10.7267 131.403C10.7267 131.403 10.7267 131.403 10.7267 131.403C10.7267 131.403 10.7267 131.404 10.7267 131.404C10.7267 131.404 10.7267 131.404 10.7267 131.404C10.7267 131.404 10.7267 131.405 10.7267 131.405C10.7267 131.405 10.7267 131.405 10.7267 131.405C10.7267 131.405 10.7267 131.406 10.7267 131.406C10.7267 131.406 10.7267 131.406 10.7267 131.406C10.7267 131.406 10.7267 131.407 10.7267 131.407C10.7267 131.407 10.7267 131.407 10.7267 131.407C10.7267 131.407 10.7267 131.408 10.7267 131.408C10.7267 131.408 10.7267 131.408 10.7267 131.408C10.7267 131.408 10.7267 131.409 10.7267 131.409C10.7267 131.409 10.7267 131.409 10.7267 131.409C10.7267 131.409 10.7267 131.41 10.7267 131.41C10.7267 131.41 10.7267 131.41 10.7267 131.41C10.7267 131.41 10.7267 131.411 10.7267 131.411C10.7267 131.411 10.7267 131.411 10.7267 131.411C10.7267 131.411 10.7267 131.412 10.7267 131.412C10.7267 131.412 10.7267 131.412 10.7267 131.412C10.7267 131.412 10.7267 131.413 10.7267 131.413C10.7267 131.413 10.7267 131.413 10.7267 131.413C10.7267 131.414 10.7267 131.414 10.7267 131.414C10.7267 131.414 10.7267 131.414 10.7267 131.414C10.7267 131.415 10.7267 131.415 10.7267 131.415C10.7267 131.415 10.7267 131.415 10.7267 131.415C10.7267 131.416 10.7267 131.416 10.7267 131.416C10.7267 131.416 10.7267 131.416 10.7267 131.416C10.7267 131.417 10.7267 131.417 10.7267 131.417C10.7267 131.417 10.7267 131.417 10.7267 131.417C10.7267 131.418 10.7267 131.418 10.7267 131.418C10.7267 131.418 10.7267 131.418 10.7267 131.418C10.7267 131.419 10.7267 131.419 10.7267 131.419C10.7267 131.419 10.7267 131.419 10.7267 131.419C10.7267 131.42 10.7267 131.42 10.7267 131.42C10.7267 131.42 10.7267 131.42 10.7267 131.42C10.7267 131.421 10.7267 131.421 10.7267 131.421C10.7267 131.421 10.7267 131.421 10.7267 131.421C10.7267 131.422 10.7267 131.422 10.7267 131.422C10.7267 131.422 10.7267 131.422 10.7267 131.422C10.7267 131.423 10.7267 131.423 10.7267 131.423C10.7267 131.423 10.7267 131.423 10.7267 131.423C10.7267 131.424 10.7267 131.424 10.7267 131.424C10.7267 131.424 10.7267 131.424 10.7267 131.424C10.7267 131.425 10.7267 131.425 10.7267 131.425C10.7267 131.425 10.7267 131.425 10.7267 131.426C10.7267 131.426 10.7267 131.426 10.7267 131.426C10.7267 131.426 10.7267 131.426 10.7267 131.427C10.7267 131.427 10.7267 131.427 10.7267 131.427C10.7267 131.427 10.7267 131.427 10.7267 131.428C10.7267 131.428 10.7267 131.428 10.7267 131.428C10.7267 131.428 10.7267 131.428 10.7267 131.429C10.7267 131.429 10.7267 131.429 10.7267 131.429C10.7267 131.429 10.7267 131.429 10.7267 131.43C10.7267 131.43 10.7267 131.43 10.7267 131.43C10.7267 131.43 10.7267 131.43 10.7267 131.431C10.7267 131.431 10.7267 131.431 10.7267 131.431C10.7267 131.431 10.7267 131.431 10.7267 131.432C10.7267 131.432 10.7267 131.432 10.7267 131.432C10.7267 131.432 10.7267 131.432 10.7267 131.433C10.7267 131.433 10.7267 131.433 10.7267 131.433C10.7267 131.433 10.7267 131.434 10.7267 131.434C10.7267 131.434 10.7267 131.434 10.7267 131.434C10.7267 131.434 10.7267 131.435 10.7267 131.435C10.7267 131.435 10.7267 131.435 10.7267 131.435C10.7267 131.435 10.7267 131.436 10.7267 131.436C10.7267 131.436 10.7267 131.436 10.7267 131.436C10.7267 131.436 10.7267 131.437 10.7267 131.437C10.7267 131.437 10.7267 131.437 10.7267 131.437C10.7267 131.437 10.7267 131.438 10.7267 131.438C10.7267 131.438 10.7267 131.438 10.7267 131.438C10.7267 131.438 10.7267 131.439 10.7267 131.439C10.7267 131.439 10.7267 131.439 10.7267 131.439C10.7267 131.439 10.7267 131.44 10.7267 131.44C10.7267 131.44 10.7267 131.44 10.7267 131.44C10.7267 131.441 10.7267 131.441 10.7267 131.441C10.7267 131.441 10.7267 131.441 10.7267 131.441C10.7267 131.442 10.7267 131.442 10.7267 131.442C10.7267 131.442 10.7267 131.442 10.7267 131.442C10.7267 131.443 10.7267 131.443 10.7267 131.443C10.7267 131.443 10.7267 131.443 10.7267 131.443C10.7267 131.444 10.7267 131.444 10.7267 131.444C10.7267 131.444 10.7267 131.444 10.7267 131.444C10.7267 131.445 10.7267 131.445 10.7267 131.445C10.7267 131.445 10.7267 131.445 10.7267 131.445C10.7267 131.446 10.7267 131.446 10.7267 131.446C10.7267 131.446 10.7267 131.446 10.7267 131.447C10.7267 131.447 10.7267 131.447 10.7267 131.447C10.7267 131.447 10.7267 131.447 10.7267 131.448C10.7267 131.448 10.7267 131.448 10.7267 131.448C10.7267 131.448 10.7267 131.448 10.7267 131.449C10.7267 131.449 10.7267 131.449 10.7267 131.449C10.7267 131.449 10.7267 131.449 10.7267 131.45C10.7267 131.45 10.7267 131.45 10.7267 131.45C10.7267 131.45 10.7267 131.45 10.7267 131.451C10.7267 131.451 10.7267 131.451 10.7267 131.451C10.7267 131.451 10.7267 131.452 10.7267 131.452C10.7267 131.452 10.7267 131.452 10.7267 131.452C10.7267 131.452 10.7267 131.453 10.7267 131.453C10.7267 131.453 10.7267 131.453 10.7267 131.453C10.7267 131.453 10.7267 131.454 10.7267 131.454C10.7267 131.454 10.7267 131.454 10.7267 131.454C10.7267 131.454 10.7267 131.455 10.7267 131.455C10.7267 131.455 10.7267 131.455 10.7267 131.455C10.7267 131.456 10.7267 131.456 10.7267 131.456C10.7267 131.456 10.7267 131.456 10.7267 131.456C10.7267 131.457 10.7267 131.457 10.7267 131.457C10.7267 131.457 10.7267 131.457 10.7267 131.457C10.7267 131.458 10.7267 131.458 10.7267 131.458C10.7267 131.458 10.7267 131.458 10.7267 131.458C10.7267 131.459 10.7267 131.459 10.7267 131.459C10.7267 131.459 10.7267 131.459 10.7267 131.46C10.7267 131.46 10.7267 131.46 10.7267 131.46C10.7267 131.46 10.7267 131.46 10.7267 131.461C10.7267 131.461 10.7267 131.461 10.7267 131.461C10.7267 131.461 10.7267 131.461 10.7267 131.462C10.7267 131.462 10.7267 131.462 10.7267 131.462C10.7267 131.462 10.7267 131.462 10.7267 131.463C10.7267 131.463 10.7267 131.463 10.7267 131.463C10.7267 131.463 10.7267 131.464 10.7267 131.464C10.7267 131.464 10.7267 131.464 10.7267 131.464C10.7267 131.464 10.7267 131.465 10.7267 131.465C10.7267 131.465 10.7267 131.465 10.7267 131.465C10.7267 131.465 10.7267 131.466 10.7267 131.466C10.7267 131.466 10.7267 131.466 10.7267 131.466C10.7267 131.466 10.7267 131.467 10.7267 131.467C10.7267 131.467 10.7267 131.467 10.7267 131.467C10.7267 131.468 10.7267 131.468 10.7267 131.468C10.7267 131.468 10.7267 131.468 10.7267 131.468C10.7267 131.469 10.7267 131.469 10.7267 131.469C10.7267 131.469 10.7267 131.469 10.7267 131.469C10.7267 131.47 10.7267 131.47 10.7267 131.47C10.7267 131.47 10.7267 131.47 10.7267 131.471C10.7267 131.471 10.7267 131.471 10.7267 131.471C10.7267 131.471 10.7267 131.471 10.7267 131.472C10.7267 131.472 10.7267 131.472 10.7267 131.472C10.7267 131.472 10.7267 131.472 10.7267 131.473C10.7267 131.473 10.7267 131.473 10.7267 131.473C10.7267 131.473 10.7267 131.474 10.7267 131.474C10.7267 131.474 10.7267 131.474 10.7267 131.474C10.7267 131.474 10.7267 131.475 10.7267 131.475C10.7267 131.475 10.7267 131.475 10.7267 131.475C10.7267 131.475 10.7267 131.476 10.7267 131.476C10.7267 131.476 10.7267 131.476 10.7267 131.476C10.7267 131.477 10.7267 131.477 10.7267 131.477C10.7267 131.477 10.7267 131.477 10.7267 131.477C10.7267 131.478 10.7267 131.478 10.7267 131.478C10.7267 131.478 10.7267 131.478 10.7267 131.479C10.7267 131.479 10.7267 131.479 10.7267 131.479C10.7267 131.479 10.7267 131.479 10.7267 131.48C10.7267 131.48 10.7267 131.48 10.7267 131.48C10.7267 131.48 10.7267 131.48 10.7267 131.481C10.7267 131.481 10.7267 131.481 10.7267 131.481C10.7267 131.481 10.7267 131.482 10.7267 131.482C10.7267 131.482 10.7267 131.482 10.7267 131.482C10.7267 131.482 10.7267 131.483 10.7267 131.483C10.7267 131.483 10.7267 131.483 10.7267 131.483C10.7267 131.484 10.7267 131.484 10.7267 131.484C10.7267 131.484 10.7267 131.484 10.7267 131.484C10.7267 131.485 10.7267 131.485 10.7267 131.485C10.7267 131.485 10.7267 131.485 10.7267 131.485C10.7267 131.486 10.7267 131.486 10.7267 131.486C10.7267 131.486 10.7267 131.486 10.7267 131.487C10.7267 131.487 10.7267 131.487 10.7267 131.487C10.7267 131.487 10.7267 131.487 10.7267 131.488C10.7267 131.488 10.7267 131.488 10.7267 131.488C10.7267 131.488 10.7267 131.489 10.7267 131.489C10.7267 131.489 10.7267 131.489 10.7267 131.489C10.7267 131.489 10.7267 131.49 10.7267 131.49C10.7267 131.49 10.7267 131.49 10.7267 131.49C10.7267 131.491 10.7267 131.491 10.7267 131.491C10.7267 131.491 10.7267 131.491 10.7267 131.491C10.7267 131.492 10.7267 131.492 10.7267 131.492C10.7267 131.492 10.7267 131.492 10.7267 131.493C10.7267 131.493 10.7267 131.493 10.7267 131.493C10.7267 131.493 10.7267 131.493 10.7267 131.494C10.7267 131.494 10.7267 131.494 10.7267 131.494C10.7267 131.494 10.7267 131.495 10.7267 131.495C10.7267 131.495 10.7267 131.495 10.7267 131.495C10.7267 131.495 10.7267 131.496 10.7267 131.496C10.7267 131.496 10.7267 131.496 10.7267 131.496C10.7267 131.497 10.7267 131.497 10.7267 131.497C10.7267 131.497 10.7267 131.497 10.7267 131.497C10.7267 131.498 10.7267 131.498 10.7267 131.498C10.7267 131.498 10.7267 131.498 10.7267 131.499C10.7267 131.499 10.7267 131.499 10.7267 131.499C10.7267 131.499 10.7267 131.499 10.7267 131.5C10.7267 131.5 10.7267 131.5 10.7267 131.5C10.7267 131.5 10.7267 131.501 10.7267 131.501C10.7267 131.501 10.7267 131.501 10.7267 131.501C10.7267 131.501 10.7267 131.502 10.7267 131.502C10.7267 131.502 10.7267 131.502 10.7267 131.502C10.7267 131.503 10.7267 131.503 10.7267 131.503C10.7267 131.503 10.7267 131.503 10.7267 131.503C10.7267 131.504 10.7267 131.504 10.7267 131.504C10.7267 131.504 10.7267 131.504 10.7267 131.505C10.7267 131.505 10.7267 131.505 10.7267 131.505C10.7267 131.505 10.7267 131.505 10.7267 131.506C10.7267 131.506 10.7267 131.506 10.7267 131.506C10.7267 131.506 10.7267 131.507 10.7267 131.507C10.7267 131.507 10.7267 131.507 10.7267 131.507C10.7267 131.508 10.7267 131.508 10.7267 131.508C10.7267 131.508 10.7267 131.508 10.7267 131.508C10.7267 131.509 10.7267 131.509 10.7267 131.509C10.7267 131.509 10.7267 131.509 10.7267 131.51C10.7267 131.51 10.7267 131.51 10.7267 131.51C10.7267 131.51 10.7267 131.51 10.7267 131.511C10.7267 131.511 10.7267 131.511 10.7267 131.511C10.7267 131.511 10.7267 131.512 10.7267 131.512C10.7267 131.512 10.7267 131.512 10.7267 131.512C10.7267 131.513 10.7267 131.513 10.7267 131.513C10.7267 131.513 10.7267 131.513 10.7267 131.513C10.7267 131.514 10.7267 131.514 10.7267 131.514C10.7267 131.514 10.7267 131.514 10.7267 131.515C10.7267 131.515 10.7267 131.515 10.7267 131.515C10.7267 131.515 10.7267 131.516 10.7267 131.516C10.7267 131.516 10.7267 131.516 10.7267 131.516C10.7267 131.516 10.7267 131.517 10.7267 131.517C10.7267 131.517 10.7267 131.517 10.7267 131.517C10.7267 131.518 10.7267 131.518 10.7267 131.518C10.7267 131.518 10.7267 131.518 10.7267 131.519C10.7267 131.519 10.7267 131.519 10.7267 131.519C10.7267 131.519 10.7267 131.519 10.7267 131.52C10.7267 131.52 10.7267 131.52 10.7267 131.52C10.7267 131.52 10.7267 131.521 10.7267 131.521C10.7267 131.521 10.7267 131.521 10.7267 131.521C10.7267 131.522 10.7267 131.522 10.7267 131.522C10.7267 131.522 10.7267 131.522 10.7267 131.522C10.7267 131.523 10.7267 131.523 10.7267 131.523C10.7267 131.523 10.7267 131.523 10.7267 131.524C10.7267 131.524 10.7267 131.524 10.7267 131.524C10.7267 131.524 10.7267 131.525 10.7267 131.525C10.7267 131.525 10.7267 131.525 10.7267 131.525C10.7267 131.526 10.7267 131.526 10.7267 131.526C10.7267 131.526 10.7267 131.526 10.7267 131.526C10.7267 131.527 10.7267 131.527 10.7267 131.527C10.7267 131.527 10.7267 131.527 10.7267 131.528C10.7267 131.528 10.7267 131.528 10.7267 131.528C10.7267 131.528 10.7267 131.529 10.7267 131.529C10.7267 131.529 10.7267 131.529 10.7267 131.529C10.7267 131.53 10.7267 131.53 10.7267 131.53C10.7267 131.53 10.7267 131.53 10.7267 131.53C10.7267 131.531 10.7267 131.531 10.7267 131.531C10.7267 131.531 10.7267 131.531 10.7267 131.532C10.7267 131.532 10.7267 131.532 10.7267 131.532C10.7267 131.532 10.7267 131.533 10.7267 131.533C10.7267 131.533 10.7267 131.533 10.7267 131.533C10.7267 131.534 10.7267 131.534 10.7267 131.534C10.7267 131.534 10.7267 131.534 10.7267 131.535C10.7267 131.535 10.7267 131.535 10.7267 131.535C10.7267 131.535 10.7267 131.536 10.7267 131.536C10.7267 131.536 10.7267 131.536 10.7267 131.536C10.7267 131.536 10.7267 131.537 10.7267 131.537C10.7267 131.537 10.7267 131.537 10.7267 131.537C10.7267 131.538 10.7267 131.538 10.7267 131.538C10.7267 131.538 10.7267 131.538 10.7267 131.539C10.7267 131.539 10.7267 131.539 10.7267 131.539C10.7267 131.539 10.7267 131.54 10.7267 131.54C10.7267 131.54 10.7267 131.54 10.7267 131.54C10.7267 131.541 10.7267 131.541 10.7267 131.541C10.7267 131.541 10.7267 131.541 10.7267 131.542C10.7267 131.542 10.7267 131.542 10.7267 131.542C10.7267 131.542 10.7267 131.543 10.7267 131.543C10.7267 131.543 10.7267 131.543 10.7267 131.543C10.7267 131.543 10.7267 131.544 10.7267 131.544C10.7267 131.544 10.7267 131.544 10.7267 131.544C10.7267 131.545 10.7267 131.545 10.7267 131.545C10.7267 131.545 10.7267 131.545 10.7267 131.546C10.7267 131.546 10.7267 131.546 10.7267 131.546C10.7267 131.546 10.7267 131.547 10.7267 131.547C10.7267 131.547 10.7267 131.547 10.7267 131.547C10.7267 131.548 10.7267 131.548 10.7267 131.548C10.7267 131.548 10.7267 131.548 10.7267 131.549C10.7267 131.549 10.7267 131.549 10.7267 131.549C10.7267 131.549 10.7267 131.55 10.7267 131.55C10.7267 131.55 10.7267 131.55 10.7267 131.55C10.7267 131.551 10.7267 131.551 10.7267 131.551C10.7267 131.551 10.7267 131.551 10.7267 131.552C10.7267 131.552 10.7267 131.552 10.7267 131.552C10.7267 131.552 10.7267 131.553 10.7267 131.553C10.7267 131.553 10.7267 131.553 10.7267 131.553C10.7267 131.554 10.7267 131.554 10.7267 131.554C10.7267 131.554 10.7267 131.554 10.7267 131.555C10.7267 131.555 10.7267 131.555 10.7267 131.555C10.7267 131.555 10.7267 131.556 10.7267 131.556C10.7267 131.556 10.7267 131.556 10.7267 131.556C10.7267 131.557 10.7267 131.557 10.7267 131.557C10.7267 131.557 10.7267 131.557 10.7267 131.558C10.7267 131.558 10.7267 131.558 10.7267 131.558C10.7267 131.558 10.7267 131.559 10.7267 131.559C10.7267 131.559 10.7267 131.559 10.7267 131.559C10.7267 131.56 10.7267 131.56 10.7267 131.56C10.7267 131.56 10.7267 131.56 10.7267 131.561C10.7267 131.561 10.7267 131.561 10.7267 131.561C10.7267 131.561 10.7267 131.562 10.7267 131.562C10.7267 131.562 10.7267 131.562 10.7267 131.562C10.7267 131.563 10.7267 131.563 10.7267 131.563C10.7267 131.563 10.7267 131.563 10.7267 131.564C10.7267 131.564 10.7267 131.564 10.7267 131.564C10.7267 131.564 10.7267 131.565 10.7267 131.565C10.7267 131.565 10.7267 131.565 10.7267 131.565C10.7267 131.566 10.7267 131.566 10.7267 131.566C10.7267 131.566 10.7267 131.566 10.7267 131.567C10.7267 131.567 10.7267 131.567 10.7267 131.567C10.7267 131.567 10.7267 131.568 10.7267 131.568C10.7267 131.568 10.7267 131.568 10.7267 131.569C10.7267 131.569 10.7267 131.569 10.7267 131.569C10.7267 131.569 10.7267 131.57 10.7267 131.57C10.7267 131.57 10.7267 131.57 10.7267 131.57C10.7267 131.571 10.7267 131.571 10.7267 131.571C10.7267 131.571 10.7267 131.571 10.7267 131.572C10.7267 131.572 10.7267 131.572 10.7267 131.572C10.7267 131.572 10.7267 131.573 10.7267 131.573C10.7267 131.573 10.7267 131.573 10.7267 131.573C10.7267 131.574 10.7267 131.574 10.7267 131.574C10.7267 131.574 10.7267 131.574 10.7267 131.575C10.7267 131.575 10.7267 131.575 10.7267 131.575C10.7267 131.575 10.7267 131.576 10.7267 131.576C10.7267 131.576 10.7267 131.576 10.7267 131.577C10.7267 131.577 10.7267 131.577 10.7267 131.577C10.7267 131.577 10.7267 131.578 10.7267 131.578C10.7267 131.578 10.7267 131.578 10.7267 131.578C10.7267 131.579 10.7267 131.579 10.7267 131.579C10.7267 131.579 10.7267 131.579 10.7267 131.58C10.7267 131.58 10.7267 131.58 10.7267 131.58C10.7267 131.58 10.7267 131.581 10.7267 131.581C10.7267 131.581 10.7267 131.581 10.7267 131.582C10.7267 131.582 10.7267 131.582 10.7267 131.582C10.7267 131.582 10.7267 131.583 10.7267 131.583C10.7267 131.583 10.7267 131.583 10.7267 131.583C10.7267 131.584 10.7267 131.584 10.7267 131.584C10.7267 131.584 10.7267 131.584 10.7267 131.585C10.7267 131.585 10.7267 131.585 10.7267 131.585C10.7267 131.586 10.7267 131.586 10.7267 131.586C10.7267 131.586 10.7267 131.586 10.7267 131.587C10.7267 131.587 10.7267 131.587 10.7267 131.587C10.7267 131.587 10.7267 131.588 10.7267 131.588C10.7267 131.588 10.7267 131.588 10.7267 131.588C10.7267 131.589 10.7267 131.589 10.7267 131.589C10.7267 131.589 10.7267 131.59 10.7267 131.59C10.7267 131.59 10.7267 131.59 10.7267 131.59C10.7267 131.591 10.7267 131.591 10.7267 131.591C10.7267 131.591 10.7267 131.591 10.7267 131.592C10.7267 131.592 10.7267 131.592 10.7267 131.592C10.7267 131.593 10.7267 131.593 10.7267 131.593C10.7267 131.593 10.7267 131.593 10.7267 131.594C10.7267 131.594 10.7267 131.594 10.7267 131.594C10.7267 131.594 10.7267 131.595 10.7267 131.595C10.7267 131.595 10.7267 131.595 10.7267 131.596C10.7267 131.596 10.7267 131.596 10.7267 131.596C10.7267 131.596 10.7267 131.597 10.7267 131.597C10.7267 131.597 10.7267 131.597 10.7267 131.597C10.7267 131.598 10.7267 131.598 10.7267 131.598C10.7267 131.598 10.7267 131.599 10.7267 131.599C10.7267 131.599 10.7267 131.599 10.7267 131.599C10.7267 131.6 10.7267 131.6 10.7267 131.6C10.7267 131.6 10.7267 131.6 10.7267 131.601C10.7267 131.601 10.7267 131.601 10.7267 131.601C10.7267 131.602 10.7267 131.602 10.7267 131.602C10.7267 131.602 10.7267 131.602 10.7267 131.603C10.7267 131.603 10.7267 131.603 10.7267 131.603C10.7267 131.604 10.7267 131.604 10.7267 131.604C10.7267 131.604 10.7267 131.604 10.7267 131.605C10.7267 131.605 10.7267 131.605 10.7267 131.605C10.7267 131.606 10.7267 131.606 10.7267 131.606C10.7267 131.606 10.7267 131.606 10.7267 131.607C10.7267 131.607 10.7267 131.607 10.7267 131.607C10.7267 131.607 10.7267 131.608 10.7267 131.608C10.7267 131.608 10.7267 131.608 10.7267 131.609C10.7267 131.609 10.7267 131.609 10.7267 131.609C10.7267 131.609 10.7267 131.61 10.7267 131.61C10.7267 131.61 10.7267 131.61 10.7267 131.611C10.7267 131.611 10.7267 131.611 10.7267 131.611C10.7267 131.611 10.7267 131.612 10.7267 131.612C10.7267 131.612 10.7267 131.612 10.7267 131.613C10.7267 131.613 10.7267 131.613 10.7267 131.613C10.7267 131.613 10.7267 131.614 10.7267 131.614C10.7267 131.614 10.7267 131.614 10.7267 131.615C10.7267 131.615 10.7267 131.615 10.7267 131.615C10.7267 131.615 10.7267 131.616 10.7267 131.616C10.7267 131.616 10.7267 131.616 10.7267 131.617C10.7267 131.617 10.7267 131.617 10.7267 131.617C10.7267 131.617 10.7267 131.618 10.7267 131.618C10.7267 131.618 10.7267 131.618 10.7267 131.619C10.7267 131.619 10.7267 131.619 10.7267 131.619C10.7267 131.619 10.7267 131.62 10.7267 131.62C10.7267 131.62 10.7267 131.62 10.7267 131.621C10.7267 131.621 10.7267 131.621 10.7267 131.621C10.7267 131.621 10.7267 131.622 10.7267 131.622C10.7267 131.622 10.7267 131.622 10.7267 131.623C10.7267 131.623 10.7267 131.623 10.7267 131.623C10.7267 131.624 10.7267 131.624 10.7267 131.624C10.7267 131.624 10.7267 131.624 10.7267 131.625C10.7267 131.625 10.7267 131.625 10.7267 131.625C10.7267 131.626 10.7267 131.626 10.7267 131.626C10.7267 131.626 10.7267 131.626 10.7267 131.627C10.7267 131.627 10.7267 131.627 10.7267 131.627C10.7267 131.628 10.7267 131.628 10.7267 131.628C10.7267 131.628 10.7267 131.629 10.7267 131.629C10.7267 131.629 10.7267 131.629 10.7267 131.629C10.7267 131.63 10.7267 131.63 10.7267 131.63C10.7267 131.63 10.7267 131.631 10.7267 131.631C10.7267 131.631 10.7267 131.631 10.7267 131.631C10.7267 131.632 10.7267 131.632 10.7267 131.632C10.7267 131.632 10.7267 131.633 10.7267 131.633C10.7267 131.633 10.7267 131.633 10.7267 131.634C10.7267 131.634 10.7267 131.634 10.7267 131.634C10.7267 131.634 10.7267 131.635 10.7267 131.635C10.7267 131.635 10.7267 131.635 10.7267 131.636C10.7267 131.636 10.7267 131.636 10.7267 131.636C10.7267 131.637 10.7267 131.637 10.7267 131.637C10.7267 131.637 10.7267 131.637 10.7267 131.638C10.7267 131.638 10.7267 131.638 10.7267 131.638C10.7267 131.639 10.7267 131.639 10.7267 131.639C10.7267 131.639 10.7267 131.64 10.7267 131.64C10.7267 131.64 10.7267 131.64 10.7267 131.64C10.7267 131.641 10.7267 131.641 10.7267 131.641C10.7267 131.641 10.7267 131.642 10.7267 131.642C10.7267 131.642 10.7267 131.642 10.7267 131.643C10.7267 131.643 10.7267 131.643 10.7267 131.643C10.7267 131.644 10.7267 131.644 10.7267 131.644C10.7267 131.644 10.7267 131.644 10.7267 131.645C10.7267 131.645 10.7267 131.645 10.7267 131.645C10.7267 131.646 10.7267 131.646 10.7267 131.646C10.7267 131.646 10.7267 131.647 10.7267 131.647C10.7267 131.647 10.7267 131.647 10.7267 131.648C10.7267 131.648 10.7267 131.648 10.7267 131.648C10.7267 131.648 10.7267 131.649 10.7267 131.649C10.7267 131.649 10.7267 131.649 10.7267 131.65C10.7267 131.65 10.7267 131.65 10.7267 131.65C10.7267 131.651 10.7267 131.651 10.7267 131.651C10.7267 131.651 10.7267 131.652 10.7267 131.652C10.7267 131.652 10.7267 131.652 10.7267 131.653C10.7267 131.653 10.7267 131.653 10.7267 131.653C10.7267 131.653 10.7267 131.654 10.7267 131.654C10.7267 131.654 10.7267 131.654 10.7267 131.655C10.7267 131.655 10.7267 131.655 10.7267 131.655C10.7267 131.656 10.7267 131.656 10.7267 131.656C10.7267 131.656 10.7267 131.657 10.7267 131.657C10.7267 131.657 10.7267 131.657 10.7267 131.658C10.7267 131.658 10.7267 131.658 10.7267 131.658C10.7267 131.658 10.7267 131.659 10.7267 131.659C10.7267 131.659 10.7267 131.659 10.7267 131.66C10.7267 131.66 10.7267 131.66 10.7267 131.66C10.7267 131.661 10.7267 131.661 10.7267 131.661C10.7267 131.661 10.7267 131.662 10.7267 131.662C10.7267 131.662 10.7267 131.662 10.7267 131.663C10.7267 131.663 10.7267 131.663 10.7267 131.663C10.7267 131.664 10.7267 131.664 10.7267 131.664C10.7267 131.664 10.7267 131.665 10.7267 131.665C10.7267 131.665 10.7267 131.665 10.7267 131.666C10.7267 131.666 10.7267 131.666 10.7267 131.666C10.7267 131.666 10.7267 131.667 10.7267 131.667C10.7267 131.667 10.7267 131.667 10.7267 131.668C10.7267 131.668 10.7267 131.668 10.7267 131.668C10.7267 131.669 10.7267 131.669 10.7267 131.669C10.7267 131.669 10.7267 131.67 10.7267 131.67C10.7267 131.67 10.7267 131.67 10.7267 131.671C10.7267 131.671 10.7267 131.671 10.7267 131.671C10.7267 131.672 10.7267 131.672 10.7267 131.672C10.7267 131.672 10.7267 131.673 10.7267 131.673C10.7267 131.673 10.7267 131.673 10.7267 131.674C10.7267 131.674 10.7267 131.674 10.7267 131.674C10.7267 131.675 10.7267 131.675 10.7267 131.675C10.7267 131.675 10.7267 131.676 10.7267 131.676C10.7267 131.676 10.7267 131.676 10.7267 131.677C10.7267 131.677 10.7267 131.677 10.7267 131.677C10.7267 131.678 10.7267 131.678 10.7267 131.678C10.7267 131.678 10.7267 131.679 10.7267 131.679C10.7267 131.679 10.7267 131.679 10.7267 131.68C10.7267 131.68 10.7267 131.68 10.7267 131.68C10.7267 131.681 10.7267 131.681 10.7267 131.681C10.7267 131.681 10.7267 131.682 10.7267 131.682C10.7267 131.682 10.7267 131.682 10.7267 131.683C10.7267 131.683 10.7267 131.683 10.7267 131.683C10.7267 131.684 10.7267 131.684 10.7267 131.684H6.72668ZM6.72668 131.384V64.0196H10.7267V131.384H6.72668ZM6.72668 64.0196V62.5183H10.7267V64.0196H6.72668ZM6.72668 62.5183C6.72668 61.0672 7.298 59.8147 8.18326 58.8748L11.0951 61.6172C10.8501 61.8774 10.7267 62.1692 10.7267 62.5183H6.72668ZM8.21274 58.8441L26.8389 39.8912L29.6918 42.6949L11.0657 61.6478L8.21274 58.8441ZM26.2653 41.293V3.34412H30.2653V41.293H26.2653ZM26.2653 3.34412C26.2653 0.415192 28.617 -1.87244 31.5212 -1.87244V2.12756C30.7797 2.12756 30.2653 2.67043 30.2653 3.34412H26.2653ZM31.5212 -1.87244C34.365 -1.87244 36.7782 0.397476 36.7782 3.34412H32.7782C32.7782 2.68814 32.2383 2.12756 31.5212 2.12756V-1.87244ZM36.7782 3.34412V41.293H32.7782V3.34412H36.7782ZM36.2063 39.8928L54.7889 58.8458L51.9327 61.6462L33.3501 42.6932L36.2063 39.8928ZM54.8115 58.8692C55.8342 59.9468 56.3407 61.3353 56.2709 62.7462L52.2758 62.5485C52.2909 62.2431 52.1897 61.9174 51.9101 61.6228L54.8115 58.8692ZM56.2733 62.6474V64.0196H52.2733V62.6474H56.2733ZM54.2733 62.0196H54.3158V66.0196H54.2733V62.0196ZM56.3158 64.0196V72.9809H52.3158V64.0196H56.3158ZM56.3158 72.9809V89.4465H52.3158V72.9809H56.3158ZM56.3158 89.4465V105.956H52.3158V89.4465H56.3158ZM56.3158 105.956V122.465H52.3158V105.956H56.3158ZM56.3158 122.465V131.384H52.3158V122.465H56.3158ZM56.3158 131.384C56.3158 131.53 56.317 131.872 56.1731 132.309L52.3735 131.059C52.3516 131.126 52.3325 131.208 52.3225 131.299C52.3142 131.374 52.3158 131.435 52.3158 131.384H56.3158ZM54.2733 129.684H59.743V133.684H54.2733V129.684ZM59.743 129.684C62.6474 129.684 65 131.971 65 134.899H61C61 134.228 60.4866 133.684 59.743 133.684V129.684ZM65 134.899C65 137.769 62.6654 140.116 59.743 140.116V136.116C60.4685 136.116 61 135.547 61 134.899H65ZM59.743 140.116H47.5862V136.116H59.743V140.116ZM47.5862 140.116H47.4991V136.116H47.5862V140.116ZM47.4991 140.116H34.7782V136.116H47.4991V140.116Z" fill="white" mask="url(#path-1-inside-1_1_172)"/>
</svg>
