<svg width="38" height="38" viewBox="0 0 38 38" fill="none" xmlns="http://www.w3.org/2000/svg">
<path d="M19 0C8.50646 0 0 8.50646 0 19C0 29.4935 8.50646 38 19 38C29.4935 38 38 29.4935 38 19C38 8.50646 29.4935 0 19 0ZM26.3071 21.4364C26.3071 21.4364 27.9874 23.0949 28.401 23.8648C28.4129 23.8806 28.4189 23.8965 28.4228 23.9044C28.591 24.1874 28.6306 24.4071 28.5475 24.5714C28.409 24.8445 27.934 24.9791 27.7717 24.9909H24.8029C24.5971 24.9909 24.1656 24.9375 23.6431 24.5773C23.2414 24.2962 22.8455 23.8351 22.4596 23.3858C21.8836 22.7169 21.3849 22.139 20.8822 22.139C20.8183 22.1388 20.7549 22.1489 20.6942 22.1686C20.3142 22.2914 19.8273 22.8336 19.8273 24.2784C19.8273 24.7297 19.471 24.989 19.2197 24.989H17.86C17.3969 24.989 14.9843 24.8267 12.8468 22.5724C10.2303 19.8115 7.8751 14.2737 7.85531 14.2223C7.70687 13.8641 8.01365 13.6721 8.34812 13.6721H11.3466C11.7464 13.6721 11.877 13.9155 11.968 14.1312C12.0749 14.3826 12.4668 15.3821 13.11 16.5063C14.153 18.339 14.7923 19.0831 15.3049 19.0831C15.401 19.082 15.4954 19.0575 15.58 19.0119C16.249 18.6398 16.1243 16.2549 16.0946 15.7601C16.0946 15.6671 16.0926 14.6933 15.7502 14.2262C15.5048 13.8878 15.0872 13.7592 14.8339 13.7117C14.9364 13.5702 15.0715 13.4555 15.2277 13.3772C15.6869 13.1476 16.5142 13.114 17.3355 13.114H17.7927C18.6833 13.1258 18.9129 13.1832 19.2355 13.2644C19.8886 13.4207 19.9025 13.8423 19.8451 15.2851C19.8273 15.6948 19.8095 16.1579 19.8095 16.7042C19.8095 16.8229 19.8035 16.9496 19.8035 17.0842C19.7838 17.8184 19.76 18.6517 20.2785 18.9941C20.3462 19.0365 20.4243 19.0591 20.5042 19.0594C20.6843 19.0594 21.2266 19.0594 22.6951 16.5399C23.148 15.7289 23.5416 14.8863 23.8727 14.0184C23.9024 13.967 23.9895 13.8086 24.0924 13.7473C24.1683 13.7086 24.2526 13.6889 24.3378 13.6899H27.8627C28.2467 13.6899 28.5099 13.7473 28.5594 13.8957C28.6465 14.1312 28.5435 14.8497 26.9345 17.0287L26.216 17.9768C24.7574 19.8886 24.7574 19.9856 26.3071 21.4364Z" fill="white"/>
</svg>
