<svg width="178" height="60" viewBox="0 0 178 60" fill="none" xmlns="http://www.w3.org/2000/svg">
<path d="M3.32 43.52C3.32 42.656 3.392 41.864 3.536 41.144C3.728 40.424 3.968 40.064 4.256 40.064C4.592 40.064 4.832 40.736 4.976 42.08C4.976 42.752 5.12 43.688 5.408 44.888C5.696 46.088 6.176 47.48 6.848 49.064C7.52 50.6 8.336 52.04 9.296 53.384C10.256 54.776 11.504 55.928 13.04 56.84C14.576 57.8 16.232 58.28 18.008 58.28C18.344 58.28 18.68 58.256 19.016 58.208C20.552 58.064 22.064 57.464 23.552 56.408C25.088 55.4 26.48 53.984 27.728 52.16C28.976 50.336 30.104 48.56 31.112 46.832C32.12 45.104 33.104 42.992 34.064 40.496C35.072 38 35.816 36.104 36.296 34.808C36.776 33.464 37.328 31.808 37.952 29.84C37.904 29.84 37.688 29.84 37.304 29.84C36.968 29.84 36.512 29.84 35.936 29.84C35.408 29.84 34.856 29.84 34.28 29.84C31.064 29.84 29.024 29.768 28.16 29.624C27.728 29.384 27.512 28.952 27.512 28.328C27.512 27.656 27.728 27.32 28.16 27.32L31.976 27.176C34.472 27.08 36.728 27.032 38.744 27.032C39.32 25.256 40.184 22.544 41.336 18.896C42.488 15.248 43.304 12.704 43.784 11.264C38.36 8.912 33.392 7.112 28.88 5.864C24.416 4.568 19.784 3.92 14.984 3.92C11.24 3.92 8.192 4.472 5.84 5.576C3.536 6.68 2.384 8.288 2.384 10.4C2.384 13.136 3.824 16.664 6.704 20.984C9.632 25.256 12.464 28.352 15.2 30.272C16.16 30.944 17.36 31.688 18.8 32.504C20.288 33.32 21.248 33.872 21.68 34.16C22.064 34.4 22.208 34.64 22.112 34.88C22.016 35.072 21.728 35.12 21.248 35.024C16.256 33.92 11.6 30.944 7.28 26.096C2.96 21.248 0.56 16.52 0.08 11.912C0.032 11.384 0.00800003 10.856 0.00800003 10.328C0.00800003 3.8 4.52 0.535997 13.544 0.535997C16.184 0.535997 18.944 0.847998 21.824 1.472C24.752 2.048 27.008 2.6 28.592 3.128C30.176 3.656 32.888 4.688 36.728 6.224C40.616 7.76 43.184 8.768 44.432 9.248C45.68 5.648 46.472 3.824 46.808 3.776C46.904 3.776 47 3.776 47.096 3.776C47.192 3.728 47.264 3.704 47.312 3.704C47.408 3.704 47.48 3.704 47.528 3.704C47.624 3.656 47.72 3.632 47.816 3.632C48.104 3.632 48.368 3.68 48.608 3.776C48.848 3.872 49.04 3.968 49.184 4.064C49.376 4.16 49.568 4.328 49.76 4.568C49.952 4.808 50.072 5 50.12 5.144C50.216 5.24 50.384 5.48 50.624 5.864C50.864 6.2 51.008 6.416 51.056 6.512C51.104 6.656 51.152 6.824 51.2 7.016C51.248 7.16 51.296 7.304 51.344 7.448C51.392 7.544 51.416 7.664 51.416 7.808C51.464 7.904 51.488 8.024 51.488 8.168C51.488 8.36 51.44 8.528 51.344 8.672C51.248 8.816 51.128 8.888 50.984 8.888C50.6 8.888 50.048 8.552 49.328 7.88C49.136 7.592 48.944 7.448 48.752 7.448C48.512 7.448 48.248 7.664 47.96 8.096C47.672 8.48 47.432 8.888 47.24 9.32C47.096 9.752 47.024 10.064 47.024 10.256C50.048 11.312 52.736 12.176 55.088 12.848C57.44 13.472 59.336 13.784 60.776 13.784C61.4 13.784 61.928 13.712 62.36 13.568C62.84 13.424 63.176 13.208 63.368 12.92C63.656 12.536 64.064 12.344 64.592 12.344C65.12 12.344 65.384 12.536 65.384 12.92C65.384 13.4 65.048 13.976 64.376 14.648C63.176 15.848 61.448 16.448 59.192 16.448C55.88 16.448 51.584 15.2 46.304 12.704C43.376 21.584 41.816 26.36 41.624 27.032C48.776 27.032 52.88 27.272 53.936 27.752C54.272 27.992 54.344 28.208 54.152 28.4C54.008 28.592 53.744 28.712 53.36 28.76C53.216 28.76 52.52 28.832 51.272 28.976C50.024 29.072 48.392 29.192 46.376 29.336C44.408 29.48 42.56 29.6 40.832 29.696C38.72 37.424 36.92 42.872 35.432 46.04C32.312 52.616 28.064 56.912 22.688 58.928C21.44 59.408 19.976 59.648 18.296 59.648C15.896 59.648 13.568 59.144 11.312 58.136C9.056 57.128 7.328 55.64 6.128 53.672C5.168 52.04 4.448 50.336 3.968 48.56C3.536 46.736 3.32 45.056 3.32 43.52ZM71.3133 5.144C68.6733 10.616 65.9853 17.24 63.2493 25.016C60.5133 32.744 58.4973 39.512 57.2013 45.32C57.1533 45.464 57.1293 45.656 57.1293 45.896C57.1293 46.472 57.3693 46.76 57.8493 46.76C58.1373 46.76 58.9053 46.4 60.1533 45.68C61.4493 44.96 62.2653 44.6 62.6013 44.6C62.8893 44.6 63.1053 44.696 63.2493 44.888C63.2493 45.464 62.0493 46.544 59.6493 48.128C57.2493 49.664 55.5453 50.432 54.5373 50.432C53.6253 50.432 53.1693 50 53.1693 49.136C53.1693 48.656 53.2653 48.152 53.4573 47.624C54.7053 44.216 55.8573 40.832 56.9133 37.472C58.0173 34.112 59.2653 30.128 60.6573 25.52C62.0493 20.864 63.0813 17.432 63.7533 15.224C63.8973 14.792 63.9693 14.36 63.9693 13.928C63.9693 13.736 63.9213 13.568 63.8253 13.424C63.7773 13.232 63.7533 13.064 63.7533 12.92C63.7533 12.776 63.8253 12.488 63.9693 12.056C64.9293 9.032 65.8173 7.016 66.6333 6.008C67.4493 5 68.6493 4.496 70.2333 4.496C70.9053 4.496 71.2653 4.712 71.3133 5.144ZM85.2605 28.544C86.1725 28.688 86.6285 28.952 86.6285 29.336C86.6285 29.72 86.2685 30.104 85.5485 30.488C84.8285 30.824 84.1805 30.992 83.6045 30.992C83.6045 36.608 82.1405 41.408 79.2125 45.392C76.2845 49.376 73.3805 51.368 70.5005 51.368C67.7165 51.368 66.3245 49.352 66.3245 45.32C66.3245 44.216 66.4205 43.112 66.6125 42.008C66.8525 40.76 67.2845 39.152 67.9085 37.184C68.5325 35.216 69.3485 33.08 70.3565 30.776C71.3645 28.472 72.5885 26.528 74.0285 24.944C75.5165 23.312 77.0045 22.496 78.4925 22.496H78.9965C78.9965 21.824 79.1885 21.248 79.5725 20.768C79.9565 20.288 80.4845 20.048 81.1565 20.048C81.8285 20.096 82.4285 21.512 82.9565 24.296C83.4845 27.032 84.2525 28.448 85.2605 28.544ZM81.5885 30.416C81.1565 30.176 80.6285 29.336 80.0045 27.896C79.3805 26.408 78.9485 25.664 78.7085 25.664C77.2205 25.664 75.4925 27.872 73.5245 32.288C71.5565 36.656 70.3325 40.112 69.8525 42.656C69.6605 43.76 69.5645 44.768 69.5645 45.68C69.5645 48.032 70.2365 49.208 71.5805 49.208C73.5005 49.208 75.6365 47.264 77.9885 43.376C80.3885 39.44 81.5885 35.12 81.5885 30.416ZM122.034 24.008C122.034 24.296 121.602 25.4 120.738 27.32C119.874 29.24 118.674 31.664 117.138 34.592C115.602 37.52 114.09 40.184 112.602 42.584C112.026 43.496 111.57 44.264 111.234 44.888C110.946 45.464 110.754 45.896 110.658 46.184C110.562 46.424 110.37 47 110.082 47.912C109.842 48.824 109.626 49.616 109.434 50.288C109.242 50.624 108.978 50.792 108.642 50.792C108.162 50.792 107.658 50.504 107.13 49.928C106.65 49.304 106.41 48.728 106.41 48.2C106.41 48.008 106.41 47.72 106.41 47.336C106.458 46.904 106.482 46.568 106.482 46.328C106.482 39.752 105.162 33.272 102.522 26.888C100.794 27.896 98.3219 31.568 95.1059 37.904C91.9379 44.192 90.3539 48.416 90.3539 50.576C90.2099 51.104 89.9459 51.368 89.5619 51.368C89.0819 51.368 88.5539 51.032 87.9779 50.36C87.4019 49.688 87.1139 49.088 87.1139 48.56C87.1139 48.416 87.1379 48.32 87.1859 48.272C89.2019 43.328 90.2099 38.768 90.2099 34.592C90.2099 32.528 90.0419 30.848 89.7059 29.552C89.3699 28.208 88.9859 27.296 88.5539 26.816C88.1219 26.336 87.6659 26.096 87.1859 26.096C87.0899 26.096 86.7539 26.288 86.1779 26.672C85.6019 27.056 85.2179 27.248 85.0259 27.248C84.8819 27.248 84.8099 27.176 84.8099 27.032C84.8099 26.36 85.4339 25.472 86.6819 24.368C87.9299 23.264 88.8899 22.712 89.5619 22.712C91.5299 22.712 92.5139 26.096 92.5139 32.864C92.5139 34.304 92.4419 36.248 92.2979 38.696C93.7859 35.96 95.7779 32.672 98.2739 28.832C100.818 24.992 102.594 23.072 103.602 23.072C103.986 22.544 104.466 22.28 105.042 22.28C105.954 22.28 106.41 22.808 106.41 23.864C106.41 24.008 106.386 24.224 106.338 24.512C106.29 24.752 106.266 24.944 106.266 25.088C106.266 25.376 106.482 26.144 106.914 27.392C107.298 28.544 107.778 30.368 108.354 32.864C108.93 35.312 109.434 37.472 109.866 39.344C110.298 41.168 110.538 42.08 110.586 42.08C111.258 42.08 112.746 39.824 115.05 35.312C117.354 30.8 118.578 27.32 118.722 24.872C118.722 24.584 118.626 24.152 118.434 23.576C118.242 23 118.146 22.544 118.146 22.208C118.146 21.632 118.386 21.08 118.866 20.552H118.938C119.466 20.12 119.874 19.904 120.162 19.904C120.786 19.904 121.242 20.384 121.53 21.344C121.866 22.256 122.034 23.144 122.034 24.008ZM138.03 27.608C138.318 29.096 138.462 30.296 138.462 31.208C138.462 32.264 138.102 33.176 137.382 33.944C136.662 34.664 135.726 35.192 134.574 35.528C133.422 35.816 132.39 36.032 131.478 36.176C130.566 36.272 129.702 36.32 128.886 36.32C128.406 36.32 127.854 36.32 127.23 36.32C126.654 36.272 126.342 36.248 126.294 36.248C124.71 40.28 123.918 43.448 123.918 45.752C123.918 47.672 124.638 48.632 126.078 48.632C127.086 48.632 128.262 48.008 129.606 46.76C130.95 45.464 132.126 44.192 133.134 42.944C134.142 41.648 134.742 41 134.934 41C135.27 41 135.438 41.192 135.438 41.576C135.438 42.92 134.118 44.792 131.478 47.192C128.838 49.544 126.774 50.72 125.286 50.72C124.086 50.72 122.982 50.36 121.974 49.64C121.014 48.872 120.534 47.624 120.534 45.896C120.534 45.368 120.606 44.744 120.75 44.024C121.086 42.2 121.518 40.424 122.046 38.696C122.622 36.968 122.934 35.912 122.982 35.528C122.262 35.336 121.902 34.952 121.902 34.376C121.902 33.848 122.31 33.584 123.126 33.584H123.63C125.55 29.792 126.654 27.608 126.942 27.032C128.286 24.488 130.854 23.216 134.646 23.216C136.278 23.216 137.406 24.68 138.03 27.608ZM135.438 31.064C135.438 29.864 135.318 28.832 135.078 27.968C134.838 27.104 134.55 26.504 134.214 26.168C133.926 25.832 133.614 25.664 133.278 25.664C132.318 25.664 131.166 26.696 129.822 28.76C128.526 30.824 127.566 32.648 126.942 34.232C127.038 34.232 127.422 34.256 128.094 34.304C128.766 34.352 129.342 34.376 129.822 34.376C131.79 34.376 133.206 34.16 134.07 33.728C134.934 33.296 135.39 32.408 135.438 31.064ZM158.545 28.76C158.161 29.288 157.633 29.816 156.961 30.344C156.337 30.824 155.857 31.064 155.521 31.064C155.233 31.064 155.089 30.92 155.089 30.632C155.089 30.44 155.305 29.768 155.737 28.616C156.217 27.464 156.457 26.672 156.457 26.24C156.457 25.904 156.337 25.736 156.097 25.736C154.417 25.736 151.921 28.328 148.609 33.512C145.345 38.696 142.921 43.76 141.337 48.704C141.049 49.088 140.593 49.472 139.969 49.856C139.345 50.24 138.817 50.432 138.385 50.432C138.097 50.432 137.881 50.312 137.737 50.072C137.737 48.776 137.881 47.6 138.169 46.544C138.505 45.488 138.913 44.864 139.393 44.672C140.449 40.688 141.193 37.712 141.625 35.744L142.345 32.72C142.441 32.384 142.489 32 142.489 31.568C142.489 31.328 142.441 31.112 142.345 30.92C142.249 30.728 142.201 30.536 142.201 30.344C142.201 30.056 142.249 29.792 142.345 29.552C143.113 26.528 143.881 24.464 144.649 23.36C145.465 22.256 146.641 21.704 148.177 21.704C148.753 21.704 149.089 21.896 149.185 22.28C149.137 22.424 148.777 23.264 148.105 24.8C147.481 26.336 146.881 27.776 146.305 29.12C145.777 30.464 145.177 32.168 144.505 34.232C143.833 36.296 143.305 38.192 142.921 39.92C144.505 36.8 146.953 33.056 150.265 28.688C153.577 24.272 156.313 22.064 158.473 22.064C159.625 22.064 160.201 22.784 160.201 24.224C160.201 25.712 159.649 27.224 158.545 28.76ZM177.375 25.304C177.279 26.264 176.655 27.632 175.503 29.408C174.351 31.184 173.463 32.072 172.839 32.072C172.647 32.072 172.551 31.928 172.551 31.64C172.551 31.208 172.815 30.344 173.343 29.048C173.871 27.704 174.135 26.84 174.135 26.456C174.135 25.736 173.703 25.376 172.839 25.376C172.695 25.376 171.903 25.496 170.463 25.736C169.263 26.024 167.679 26.792 165.711 28.04C163.791 29.288 162.831 30.656 162.831 32.144C162.831 32.672 162.951 33.152 163.191 33.584C163.815 34.832 164.895 35.888 166.431 36.752C168.015 37.616 169.359 38.432 170.463 39.2C171.615 39.968 172.191 40.976 172.191 42.224C172.191 44.336 170.559 46.376 167.295 48.344C164.079 50.264 161.319 51.224 159.015 51.224C158.631 51.224 158.319 51.056 158.079 50.72C157.839 50.432 157.719 50.12 157.719 49.784C157.719 49.208 157.983 48.92 158.511 48.92C160.095 48.92 162.303 48.44 165.135 47.48C168.015 46.472 169.455 45.392 169.455 44.24C169.455 43.568 168.903 42.776 167.799 41.864C166.743 40.952 165.567 40.112 164.271 39.344C163.023 38.576 161.847 37.664 160.743 36.608C159.687 35.504 159.159 34.448 159.159 33.44C159.159 32.624 159.447 31.856 160.023 31.136C160.455 30.608 160.911 30.104 161.391 29.624C161.871 29.096 162.327 28.64 162.759 28.256C163.191 27.872 163.671 27.488 164.199 27.104C164.775 26.72 165.279 26.384 165.711 26.096C166.143 25.808 166.647 25.52 167.223 25.232C167.799 24.944 168.255 24.728 168.591 24.584C168.927 24.392 169.359 24.176 169.887 23.936C170.463 23.696 170.847 23.552 171.039 23.504C171.279 23.408 171.639 23.264 172.119 23.072C172.599 22.88 172.863 22.784 172.911 22.784C173.727 22.544 174.351 22.424 174.783 22.424C176.511 22.424 177.375 23.384 177.375 25.304Z" fill="#424242"/>
</svg>
