<svg width="89" height="94" viewBox="0 0 89 94" fill="none" xmlns="http://www.w3.org/2000/svg">
<path d="M19.5244 46.089C19.5244 46.089 17.6468 51.5097 18.7467 57.2603C19.8544 63.0109 21.402 68.3216 21.402 68.3216C21.402 68.3216 21.732 79.6028 21.402 80.8205C21.0721 82.0382 18.5267 83.5858 18.5267 85.8012C18.5267 88.0166 19.3359 90.8134 23.4289 91.4812C27.5219 92.1489 30.8371 90.782 32.2041 89.1244C34.1759 86.7283 33.791 85.0314 33.791 83.2637C33.791 81.4961 33.901 71.3226 34.3409 69.7671C34.7808 68.2195 35.4486 67.3317 36.6663 67.4417C37.884 67.5517 39.2116 69.4293 39.3216 72.9724C39.4316 76.5076 39.5416 82.706 39.4316 83.9237C39.3216 85.1413 38.2139 89.2343 39.1017 90.892C39.9894 92.5496 44.0038 94.1601 47.0991 93.9872C51.1528 93.7673 53.5882 91.2219 53.8081 89.2343C54.0281 87.2468 52.7004 82.706 52.7004 81.3783C52.7004 80.0506 54.2481 70.9848 54.688 70.427C55.128 69.8771 56.4792 69.9949 59.4409 68.6594C62.1355 67.4417 63.5732 66.224 63.5732 66.224C63.5732 66.224 63.6439 74.0801 63.5339 74.9599C63.4239 75.8477 60.7686 78.613 61.2085 80.7105C61.6485 82.8081 64.241 84.0336 66.5506 84.2458C70.4551 84.615 74.2574 81.5904 75.2472 78.9351C76.245 76.2797 75.7972 72.9645 75.5772 71.1969C75.3572 69.4293 75.3572 63.2309 75.5772 61.5732C75.7972 59.9156 76.1585 58.9101 76.3 58.038C76.5199 56.6004 76.4649 54.9978 76.4649 54.9978C76.4649 54.9978 80.283 54.9977 82.5455 53.5051C84.808 52.0125 87.1884 49.4121 88.2411 46.2069C89.2703 43.0723 89.0189 42.1139 88.1311 42.0039C87.2434 41.8939 83.2683 47.4717 79.8902 47.6445C74.5245 47.9195 75.0587 42.1689 70.9657 38.6886C66.3542 34.7606 59.166 34.2657 59.166 34.2657C59.166 34.2657 60.4072 29.6228 60.4229 26.1897C60.4779 11.2004 53.1797 6.11753 53.1797 6.11753C53.1797 6.11753 44.4045 -0.418686 34.4509 0.0212522C24.4973 0.46119 17.199 8.37221 17.199 8.37221L11.7234 32.5374C11.7234 32.5374 13.1061 37.1803 15.3215 40.5584C17.6468 44.0936 19.5244 46.089 19.5244 46.089Z" fill="#FFD2B1"/>
<path d="M12.6114 3.01453C4.4804 3.17951 0.183147 10.1085 0.0574504 14.3508C-0.0132539 16.8411 -0.995257 34.9414 9.01333 35.3107C13.0278 35.4599 16.013 30.8013 17.5293 25.5221C19.4383 18.868 19.3519 12.1982 19.5718 10.4228C19.9254 7.58674 20.5146 5.5049 20.5146 5.5049C20.5146 5.5049 19.5247 2.87313 12.6114 3.01453Z" fill="#865B52"/>
<path d="M56.1341 0.248769C64.98 0.578722 67.9967 4.49888 68.853 6.77713C69.7957 9.26749 70.6206 18.1527 69.2379 24.084C68.1145 28.9233 66.4176 31.3822 62.4346 31.2172C58.7894 31.068 56.9433 25.8123 54.1936 18.6633C51.5383 11.75 49.5036 5.55945 49.1579 4.67171C48.718 3.50902 47.7753 3.01409 47.7753 3.01409C47.7753 3.01409 49.5429 -0.00262378 56.1341 0.248769Z" fill="#865B52"/>
<path d="M46.0154 18.2154C41.6474 18.4904 39.5577 23.3454 40.4847 28.224C41.4824 33.4797 44.9312 35.9701 49.2756 35.4123C54.0285 34.8074 55.4662 29.3867 54.8612 25.2937C54.3035 21.5699 52.1981 17.8226 46.0154 18.2154Z" fill="#D27856"/>
<path d="M51.1534 27.1165C51.1534 29.4105 49.8807 31.3274 47.8617 31.2724C45.12 31.1938 44.4051 28.7663 44.46 26.7237C44.5229 24.3355 45.9527 23.2042 47.9953 23.2592C49.8179 23.2985 51.1534 24.8226 51.1534 27.1165Z" fill="#060401"/>
<path d="M28.0955 28.3815C28.0955 30.7697 26.8228 32.7651 24.8038 32.7023C22.0621 32.6237 21.3472 30.0941 21.4022 27.9651C21.465 25.4747 23.1698 24.4142 24.7724 24.532C26.5872 24.6656 28.0955 25.9932 28.0955 28.3815Z" fill="#060401"/>
<path d="M38.5992 41.721C38.5992 41.721 43.4071 41.2261 43.1871 37.738C42.9671 34.2578 39.7069 34.03 37.1615 34.085C34.6162 34.14 30.971 35.4676 31.3559 38.3979C31.7409 41.3282 35.8888 41.7132 35.8888 41.7132C35.8888 41.7132 35.881 43.8815 34.4512 44.0386C32.9035 44.2036 30.6881 41.8232 30.0832 41.2183C29.4783 40.6133 28.5356 40.8333 28.2056 41.3282C27.8757 41.8232 28.0957 42.9309 29.0384 43.8736C29.9811 44.8163 32.1886 47.1888 34.404 46.9689C36.6194 46.7489 36.6744 45.5862 37.5543 45.5312C38.442 45.4762 38.3871 46.8039 40.5946 46.7489C42.1501 46.7096 45.2846 43.9757 45.8503 43.4887C47.123 42.381 47.4529 41.2733 46.903 40.5584C46.3531 39.8435 44.8054 40.8883 43.9727 41.5011C43.14 42.106 41.7966 43.5358 40.4925 43.7715C38.3242 44.1564 38.5992 41.721 38.5992 41.721Z" fill="#060401"/>
<path d="M58.2311 36.5357C58.2311 36.5357 57.1863 38.8297 56.3142 40.668C55.2615 42.8834 53.7532 44.816 53.7532 44.816C53.7532 44.816 55.4579 56.4743 65.6001 55.4687C69.2295 55.1074 71.9792 52.2635 72.2384 49.2468C72.6784 44.1561 70.7458 41.7757 67.7448 39.4503C62.8819 35.6951 58.2311 36.5357 58.2311 36.5357Z" fill="#D27856"/>
<path d="M51.208 54.7694C49.409 56.4191 50.3753 59.5223 52.7557 59.8601C55.136 60.19 56.4166 58.2103 56.2359 56.7098C55.9688 54.3844 53.2585 52.8918 51.208 54.7694Z" fill="#D27856"/>
<path d="M27.7109 51.7056C27.7109 51.7056 26.124 56.0578 29.4785 61.5099C30.9083 63.8274 34.09 65.1315 36.3368 65.0451C38.7093 64.9587 40.854 64.1338 42.6923 61.8398C45.6226 58.1868 44.7899 52.1062 44.7899 52.1062C44.7899 52.1062 40.147 54.0152 35.889 53.8738C31.3561 53.7324 27.7109 51.7056 27.7109 51.7056Z" fill="#D27856"/>
<path d="M21.921 85.0156C20.7662 84.6621 20.3027 86.4533 20.2241 87.5924C20.1455 88.7315 20.1534 90.2085 21.1825 90.5777C22.2117 90.9469 22.0074 88.7551 22.1017 88.0323C22.2902 86.6418 23.1387 85.3849 21.921 85.0156Z" fill="#D27856"/>
<path d="M26.4538 85.6831C25.7625 85.6517 25.0318 86.3509 24.9454 88.3778C24.8747 90.0747 24.9454 91.473 25.9039 91.5516C27.1923 91.6537 26.8309 90.0039 26.9016 88.637C26.933 87.8593 27.8914 85.7538 26.4538 85.6831Z" fill="#D27856"/>
<path d="M44.0435 87.8909C42.9358 87.8909 42.9044 89.1478 42.9044 90.5069C42.9044 91.8739 42.6216 93.5629 43.8629 93.7122C45.3712 93.8929 45.0805 91.866 45.0805 90.7269C45.0727 89.737 45.2534 87.8909 44.0435 87.8909Z" fill="#D27856"/>
<path d="M49.0554 87.6389C48.1677 87.8195 48.2463 89.0372 48.2777 90.5142C48.317 91.9911 48.097 93.5545 49.3461 93.4288C50.4145 93.3188 50.3438 91.5826 50.3046 90.2549C50.2731 89.1079 50.4224 87.3482 49.0554 87.6389Z" fill="#D27856"/>
<path d="M64.2414 78.0311C63.4794 77.8818 62.6152 78.526 62.3952 80.2465C62.2145 81.7234 62.2852 83.0197 63.5736 83.3025C64.2335 83.4517 64.3514 81.7548 64.3828 80.5372C64.4221 79.4845 65.1998 78.2196 64.2414 78.0311Z" fill="#D27856"/>
<path d="M68.4052 78.927C67.6745 78.8092 66.9596 79.257 66.7711 81.0874C66.6611 82.1558 66.2683 84.0727 67.596 84.1434C68.6251 84.1905 68.5466 82.5015 68.6408 81.6216C68.7901 80.2311 69.6071 79.1313 68.4052 78.927Z" fill="#D27856"/>
</svg>
