<svg width="37" height="36" viewBox="0 0 37 36" fill="none" xmlns="http://www.w3.org/2000/svg">
<path fill-rule="evenodd" clip-rule="evenodd" d="M35.6851 6.15448C36.2141 7.55798 36.4948 9.04285 36.5148 10.5426C36.6252 12.429 36.6257 13.0459 36.6296 17.8208V17.8871C36.6296 22.7247 36.6039 23.3287 36.5187 25.2336C36.489 26.7168 36.2098 28.1782 35.689 29.5643C35.2298 30.7479 34.529 31.8228 33.6313 32.7205C32.7336 33.6182 31.6587 34.319 30.4752 34.7782C29.0897 35.2982 27.626 35.5787 26.1465 35.6079C24.2554 35.7188 23.6356 35.7188 18.7999 35.7188C13.9643 35.7188 13.3603 35.6931 11.4534 35.6079C9.97095 35.5592 8.50769 35.2578 7.12665 34.7168C5.94263 34.2585 4.86719 33.5583 3.96912 32.6609C3.07098 31.7635 2.37 30.6886 1.91083 29.505C1.39001 28.1168 1.11078 26.6554 1.08112 25.1743C0.970215 23.2811 0.970215 22.6633 0.970215 17.8278C0.970215 12.9921 0.995972 12.3881 1.08112 10.4812C1.10907 9.0022 1.38971 7.53882 1.91083 6.15448C2.3692 4.9704 3.0697 3.89508 3.96753 2.99731C4.8653 2.09949 5.94061 1.39899 7.12469 0.940613C8.50952 0.420715 9.97253 0.139526 11.4514 0.108887C13.3425 0 13.9623 0 18.7979 0C23.6336 0 24.2375 0.0237427 26.1425 0.108887C27.6221 0.139282 29.0858 0.420532 30.4712 0.940613C31.6551 1.39929 32.7302 2.09991 33.628 2.99768C34.5258 3.89545 35.2264 4.97058 35.6851 6.15448ZM9.63159 17.8179C9.63159 22.8752 13.7286 26.9723 18.7861 26.9723C21.214 26.9723 23.5424 26.0078 25.2592 24.291C26.976 22.5742 27.9405 20.2457 27.9405 17.8179C27.9405 15.3899 26.976 13.0614 25.2592 11.3446C23.5424 9.62781 21.214 8.66333 18.7861 8.66333C13.7286 8.66333 9.63159 12.7604 9.63159 17.8179ZM26.1702 8.32471C26.1702 9.505 27.1227 10.4594 28.3049 10.4594C29.4831 10.4594 30.4376 9.505 30.4376 8.32471C30.4376 8.04456 30.3823 7.76709 30.2751 7.50818C30.1679 7.24939 30.0107 7.01416 29.8126 6.81604C29.6145 6.61792 29.3793 6.46075 29.1204 6.35352C28.8615 6.24628 28.5841 6.1911 28.3039 6.1911C28.0237 6.1911 27.7462 6.24628 27.4874 6.35352C27.2285 6.46075 26.9933 6.61792 26.7952 6.81604C26.6777 6.93353 26.5746 7.06409 26.4878 7.20483C26.4282 7.30139 26.3763 7.40283 26.3326 7.50818C26.2254 7.76709 26.1702 8.04456 26.1702 8.32471ZM24.7328 17.8162C24.7328 21.1003 22.0705 23.7627 18.7863 23.7627C15.5021 23.7627 12.8398 21.1003 12.8398 17.8162C12.8398 14.532 15.5021 11.8696 18.7863 11.8696C22.0705 11.8696 24.7328 14.532 24.7328 17.8162Z" fill="white"/>
</svg>
