<svg width="45" height="40" viewBox="0 0 45 40" fill="none" xmlns="http://www.w3.org/2000/svg">
<path d="M2.88 28.68C2.88 28.104 2.928 27.576 3.024 27.096C3.152 26.616 3.312 26.376 3.504 26.376C3.728 26.376 3.888 26.824 3.984 27.72C3.984 28.168 4.08 28.792 4.272 29.592C4.464 30.392 4.784 31.32 5.232 32.376C5.68 33.4 6.224 34.36 6.864 35.256C7.504 36.184 8.336 36.952 9.36 37.56C10.384 38.2 11.488 38.52 12.672 38.52C12.896 38.52 13.12 38.504 13.344 38.472C14.368 38.376 15.376 37.976 16.368 37.272C17.392 36.6 18.32 35.656 19.152 34.44C19.984 33.224 20.736 32.04 21.408 30.888C22.08 29.736 22.736 28.328 23.376 26.664C24.048 25 24.544 23.736 24.864 22.872C25.184 21.976 25.552 20.872 25.968 19.56C25.936 19.56 25.792 19.56 25.536 19.56C25.312 19.56 25.008 19.56 24.624 19.56C24.272 19.56 23.904 19.56 23.52 19.56C21.376 19.56 20.016 19.512 19.44 19.416C19.152 19.256 19.008 18.968 19.008 18.552C19.008 18.104 19.152 17.88 19.44 17.88L21.984 17.784C23.648 17.72 25.152 17.688 26.496 17.688C26.88 16.504 27.456 14.696 28.224 12.264C28.992 9.832 29.536 8.136 29.856 7.176C26.24 5.608 22.928 4.408 19.92 3.576C16.944 2.712 13.856 2.28 10.656 2.28C8.16 2.28 6.128 2.648 4.56 3.384C3.024 4.12 2.256 5.192 2.256 6.6C2.256 8.424 3.216 10.776 5.136 13.656C7.088 16.504 8.976 18.568 10.8 19.848C11.44 20.296 12.24 20.792 13.2 21.336C14.192 21.88 14.832 22.248 15.12 22.44C15.376 22.6 15.472 22.76 15.408 22.92C15.344 23.048 15.152 23.08 14.832 23.016C11.504 22.28 8.4 20.296 5.52 17.064C2.64 13.832 1.04 10.68 0.72 7.608C0.688 7.256 0.672 6.904 0.672 6.552C0.672 2.2 3.68 0.0239983 9.696 0.0239983C11.456 0.0239983 13.296 0.231998 15.216 0.647999C17.168 1.032 18.672 1.4 19.728 1.752C20.784 2.104 22.592 2.792 25.152 3.816C27.744 4.84 29.456 5.512 30.288 5.832C31.12 3.432 31.648 2.216 31.872 2.184C31.936 2.184 32 2.184 32.064 2.184C32.128 2.152 32.176 2.136 32.208 2.136C32.272 2.136 32.32 2.136 32.352 2.136C32.416 2.104 32.48 2.088 32.544 2.088C32.736 2.088 32.912 2.12 33.072 2.184C33.232 2.248 33.36 2.312 33.456 2.376C33.584 2.44 33.712 2.552 33.84 2.712C33.968 2.872 34.048 3 34.08 3.096C34.144 3.16 34.256 3.32 34.416 3.576C34.576 3.8 34.672 3.944 34.704 4.008C34.736 4.104 34.768 4.216 34.8 4.344C34.832 4.44 34.864 4.536 34.896 4.632C34.928 4.696 34.944 4.776 34.944 4.872C34.976 4.936 34.992 5.016 34.992 5.112C34.992 5.24 34.96 5.352 34.896 5.448C34.832 5.544 34.752 5.592 34.656 5.592C34.4 5.592 34.032 5.368 33.552 4.92C33.424 4.728 33.296 4.632 33.168 4.632C33.008 4.632 32.832 4.776 32.64 5.064C32.448 5.32 32.288 5.592 32.16 5.88C32.064 6.168 32.016 6.376 32.016 6.504C34.032 7.208 35.824 7.784 37.392 8.232C38.96 8.648 40.224 8.856 41.184 8.856C41.6 8.856 41.952 8.808 42.24 8.712C42.56 8.616 42.784 8.472 42.912 8.28C43.104 8.024 43.376 7.896 43.728 7.896C44.08 7.896 44.256 8.024 44.256 8.28C44.256 8.6 44.032 8.984 43.584 9.432C42.784 10.232 41.632 10.632 40.128 10.632C37.92 10.632 35.056 9.8 31.536 8.136C29.584 14.056 28.544 17.24 28.416 17.688C33.184 17.688 35.92 17.848 36.624 18.168C36.848 18.328 36.896 18.472 36.768 18.6C36.672 18.728 36.496 18.808 36.24 18.84C36.144 18.84 35.68 18.888 34.848 18.984C34.016 19.048 32.928 19.128 31.584 19.224C30.272 19.32 29.04 19.4 27.888 19.464C26.48 24.616 25.28 28.248 24.288 30.36C22.208 34.744 19.376 37.608 15.792 38.952C14.96 39.272 13.984 39.432 12.864 39.432C11.264 39.432 9.712 39.096 8.208 38.424C6.704 37.752 5.552 36.76 4.752 35.448C4.112 34.36 3.632 33.224 3.312 32.04C3.024 30.824 2.88 29.704 2.88 28.68Z" fill="white"/>
</svg>
