<svg width="119" height="40" viewBox="0 0 119 40" fill="none" xmlns="http://www.w3.org/2000/svg">
<path d="M2.88 28.68C2.88 28.104 2.928 27.576 3.024 27.096C3.152 26.616 3.312 26.376 3.504 26.376C3.728 26.376 3.888 26.824 3.984 27.72C3.984 28.168 4.08 28.792 4.272 29.592C4.464 30.392 4.784 31.32 5.232 32.376C5.68 33.4 6.224 34.36 6.864 35.256C7.504 36.184 8.336 36.952 9.36 37.56C10.384 38.2 11.488 38.52 12.672 38.52C12.896 38.52 13.12 38.504 13.344 38.472C14.368 38.376 15.376 37.976 16.368 37.272C17.392 36.6 18.32 35.656 19.152 34.44C19.984 33.224 20.736 32.04 21.408 30.888C22.08 29.736 22.736 28.328 23.376 26.664C24.048 25 24.544 23.736 24.864 22.872C25.184 21.976 25.552 20.872 25.968 19.56C25.936 19.56 25.792 19.56 25.536 19.56C25.312 19.56 25.008 19.56 24.624 19.56C24.272 19.56 23.904 19.56 23.52 19.56C21.376 19.56 20.016 19.512 19.44 19.416C19.152 19.256 19.008 18.968 19.008 18.552C19.008 18.104 19.152 17.88 19.44 17.88L21.984 17.784C23.648 17.72 25.152 17.688 26.496 17.688C26.88 16.504 27.456 14.696 28.224 12.264C28.992 9.832 29.536 8.136 29.856 7.176C26.24 5.608 22.928 4.408 19.92 3.576C16.944 2.712 13.856 2.28 10.656 2.28C8.16 2.28 6.128 2.648 4.56 3.384C3.024 4.12 2.256 5.192 2.256 6.6C2.256 8.424 3.216 10.776 5.136 13.656C7.088 16.504 8.976 18.568 10.8 19.848C11.44 20.296 12.24 20.792 13.2 21.336C14.192 21.88 14.832 22.248 15.12 22.44C15.376 22.6 15.472 22.76 15.408 22.92C15.344 23.048 15.152 23.08 14.832 23.016C11.504 22.28 8.4 20.296 5.52 17.064C2.64 13.832 1.04 10.68 0.72 7.608C0.688 7.256 0.672 6.904 0.672 6.552C0.672 2.2 3.68 0.0239983 9.696 0.0239983C11.456 0.0239983 13.296 0.231998 15.216 0.647999C17.168 1.032 18.672 1.4 19.728 1.752C20.784 2.104 22.592 2.792 25.152 3.816C27.744 4.84 29.456 5.512 30.288 5.832C31.12 3.432 31.648 2.216 31.872 2.184C31.936 2.184 32 2.184 32.064 2.184C32.128 2.152 32.176 2.136 32.208 2.136C32.272 2.136 32.32 2.136 32.352 2.136C32.416 2.104 32.48 2.088 32.544 2.088C32.736 2.088 32.912 2.12 33.072 2.184C33.232 2.248 33.36 2.312 33.456 2.376C33.584 2.44 33.712 2.552 33.84 2.712C33.968 2.872 34.048 3 34.08 3.096C34.144 3.16 34.256 3.32 34.416 3.576C34.576 3.8 34.672 3.944 34.704 4.008C34.736 4.104 34.768 4.216 34.8 4.344C34.832 4.44 34.864 4.536 34.896 4.632C34.928 4.696 34.944 4.776 34.944 4.872C34.976 4.936 34.992 5.016 34.992 5.112C34.992 5.24 34.96 5.352 34.896 5.448C34.832 5.544 34.752 5.592 34.656 5.592C34.4 5.592 34.032 5.368 33.552 4.92C33.424 4.728 33.296 4.632 33.168 4.632C33.008 4.632 32.832 4.776 32.64 5.064C32.448 5.32 32.288 5.592 32.16 5.88C32.064 6.168 32.016 6.376 32.016 6.504C34.032 7.208 35.824 7.784 37.392 8.232C38.96 8.648 40.224 8.856 41.184 8.856C41.6 8.856 41.952 8.808 42.24 8.712C42.56 8.616 42.784 8.472 42.912 8.28C43.104 8.024 43.376 7.896 43.728 7.896C44.08 7.896 44.256 8.024 44.256 8.28C44.256 8.6 44.032 8.984 43.584 9.432C42.784 10.232 41.632 10.632 40.128 10.632C37.92 10.632 35.056 9.8 31.536 8.136C29.584 14.056 28.544 17.24 28.416 17.688C33.184 17.688 35.92 17.848 36.624 18.168C36.848 18.328 36.896 18.472 36.768 18.6C36.672 18.728 36.496 18.808 36.24 18.84C36.144 18.84 35.68 18.888 34.848 18.984C34.016 19.048 32.928 19.128 31.584 19.224C30.272 19.32 29.04 19.4 27.888 19.464C26.48 24.616 25.28 28.248 24.288 30.36C22.208 34.744 19.376 37.608 15.792 38.952C14.96 39.272 13.984 39.432 12.864 39.432C11.264 39.432 9.712 39.096 8.208 38.424C6.704 37.752 5.552 36.76 4.752 35.448C4.112 34.36 3.632 33.224 3.312 32.04C3.024 30.824 2.88 29.704 2.88 28.68ZM48.2089 3.096C46.4489 6.744 44.6569 11.16 42.8329 16.344C41.0089 21.496 39.6649 26.008 38.8009 29.88C38.7689 29.976 38.7529 30.104 38.7529 30.264C38.7529 30.648 38.9129 30.84 39.2329 30.84C39.4249 30.84 39.9369 30.6 40.7689 30.12C41.6329 29.64 42.1769 29.4 42.4009 29.4C42.5929 29.4 42.7369 29.464 42.8329 29.592C42.8329 29.976 42.0329 30.696 40.4329 31.752C38.8329 32.776 37.6969 33.288 37.0249 33.288C36.4169 33.288 36.1129 33 36.1129 32.424C36.1129 32.104 36.1769 31.768 36.3049 31.416C37.1369 29.144 37.9049 26.888 38.6089 24.648C39.3449 22.408 40.1769 19.752 41.1049 16.68C42.0329 13.576 42.7209 11.288 43.1689 9.816C43.2649 9.528 43.3129 9.24 43.3129 8.952C43.3129 8.824 43.2809 8.712 43.2169 8.616C43.1849 8.488 43.1689 8.376 43.1689 8.28C43.1689 8.184 43.2169 7.992 43.3129 7.704C43.9529 5.688 44.5449 4.344 45.0889 3.672C45.6329 3 46.4329 2.664 47.4889 2.664C47.9369 2.664 48.1769 2.808 48.2089 3.096ZM57.507 18.696C58.115 18.792 58.419 18.968 58.419 19.224C58.419 19.48 58.179 19.736 57.699 19.992C57.219 20.216 56.787 20.328 56.403 20.328C56.403 24.072 55.427 27.272 53.475 29.928C51.523 32.584 49.587 33.912 47.667 33.912C45.811 33.912 44.883 32.568 44.883 29.88C44.883 29.144 44.947 28.408 45.075 27.672C45.235 26.84 45.523 25.768 45.939 24.456C46.355 23.144 46.899 21.72 47.571 20.184C48.243 18.648 49.059 17.352 50.019 16.296C51.011 15.208 52.003 14.664 52.995 14.664H53.331C53.331 14.216 53.459 13.832 53.715 13.512C53.971 13.192 54.323 13.032 54.771 13.032C55.219 13.064 55.619 14.008 55.971 15.864C56.323 17.688 56.835 18.632 57.507 18.696ZM55.059 19.944C54.771 19.784 54.419 19.224 54.003 18.264C53.587 17.272 53.299 16.776 53.139 16.776C52.147 16.776 50.995 18.248 49.683 21.192C48.371 24.104 47.555 26.408 47.235 28.104C47.107 28.84 47.043 29.512 47.043 30.12C47.043 31.688 47.491 32.472 48.387 32.472C49.667 32.472 51.091 31.176 52.659 28.584C54.259 25.96 55.059 23.08 55.059 19.944ZM82.0226 15.672C82.0226 15.864 81.7346 16.6 81.1586 17.88C80.5826 19.16 79.7826 20.776 78.7586 22.728C77.7346 24.68 76.7266 26.456 75.7346 28.056C75.3506 28.664 75.0466 29.176 74.8226 29.592C74.6306 29.976 74.5026 30.264 74.4386 30.456C74.3746 30.616 74.2466 31 74.0546 31.608C73.8946 32.216 73.7506 32.744 73.6226 33.192C73.4946 33.416 73.3186 33.528 73.0946 33.528C72.7746 33.528 72.4386 33.336 72.0866 32.952C71.7666 32.536 71.6066 32.152 71.6066 31.8C71.6066 31.672 71.6066 31.48 71.6066 31.224C71.6386 30.936 71.6546 30.712 71.6546 30.552C71.6546 26.168 70.7746 21.848 69.0146 17.592C67.8626 18.264 66.2146 20.712 64.0706 24.936C61.9586 29.128 60.9026 31.944 60.9026 33.384C60.8066 33.736 60.6306 33.912 60.3746 33.912C60.0546 33.912 59.7026 33.688 59.3186 33.24C58.9346 32.792 58.7426 32.392 58.7426 32.04C58.7426 31.944 58.7586 31.88 58.7906 31.848C60.1346 28.552 60.8066 25.512 60.8066 22.728C60.8066 21.352 60.6946 20.232 60.4706 19.368C60.2466 18.472 59.9906 17.864 59.7026 17.544C59.4146 17.224 59.1106 17.064 58.7906 17.064C58.7266 17.064 58.5026 17.192 58.1186 17.448C57.7346 17.704 57.4786 17.832 57.3506 17.832C57.2546 17.832 57.2066 17.784 57.2066 17.688C57.2066 17.24 57.6226 16.648 58.4546 15.912C59.2866 15.176 59.9266 14.808 60.3746 14.808C61.6866 14.808 62.3426 17.064 62.3426 21.576C62.3426 22.536 62.2946 23.832 62.1986 25.464C63.1906 23.64 64.5186 21.448 66.1826 18.888C67.8786 16.328 69.0626 15.048 69.7346 15.048C69.9906 14.696 70.3106 14.52 70.6946 14.52C71.3026 14.52 71.6066 14.872 71.6066 15.576C71.6066 15.672 71.5906 15.816 71.5586 16.008C71.5266 16.168 71.5106 16.296 71.5106 16.392C71.5106 16.584 71.6546 17.096 71.9426 17.928C72.1986 18.696 72.5186 19.912 72.9026 21.576C73.2866 23.208 73.6226 24.648 73.9106 25.896C74.1986 27.112 74.3586 27.72 74.3906 27.72C74.8386 27.72 75.8306 26.216 77.3666 23.208C78.9026 20.2 79.7186 17.88 79.8146 16.248C79.8146 16.056 79.7506 15.768 79.6226 15.384C79.4946 15 79.4306 14.696 79.4306 14.472C79.4306 14.088 79.5906 13.72 79.9106 13.368H79.9586C80.3106 13.08 80.5826 12.936 80.7746 12.936C81.1906 12.936 81.4946 13.256 81.6866 13.896C81.9106 14.504 82.0226 15.096 82.0226 15.672ZM92.6865 18.072C92.8785 19.064 92.9745 19.864 92.9745 20.472C92.9745 21.176 92.7345 21.784 92.2545 22.296C91.7745 22.776 91.1505 23.128 90.3825 23.352C89.6145 23.544 88.9265 23.688 88.3185 23.784C87.7105 23.848 87.1345 23.88 86.5905 23.88C86.2705 23.88 85.9025 23.88 85.4865 23.88C85.1025 23.848 84.8945 23.832 84.8625 23.832C83.8065 26.52 83.2785 28.632 83.2785 30.168C83.2785 31.448 83.7585 32.088 84.7185 32.088C85.3905 32.088 86.1745 31.672 87.0705 30.84C87.9665 29.976 88.7505 29.128 89.4225 28.296C90.0945 27.432 90.4945 27 90.6225 27C90.8465 27 90.9585 27.128 90.9585 27.384C90.9585 28.28 90.0785 29.528 88.3185 31.128C86.5585 32.696 85.1825 33.48 84.1905 33.48C83.3905 33.48 82.6545 33.24 81.9825 32.76C81.3425 32.248 81.0225 31.416 81.0225 30.264C81.0225 29.912 81.0705 29.496 81.1665 29.016C81.3905 27.8 81.6785 26.616 82.0305 25.464C82.4145 24.312 82.6225 23.608 82.6545 23.352C82.1745 23.224 81.9345 22.968 81.9345 22.584C81.9345 22.232 82.2065 22.056 82.7505 22.056H83.0865C84.3665 19.528 85.1025 18.072 85.2945 17.688C86.1905 15.992 87.9025 15.144 90.4305 15.144C91.5185 15.144 92.2705 16.12 92.6865 18.072ZM90.9585 20.376C90.9585 19.576 90.8785 18.888 90.7185 18.312C90.5585 17.736 90.3665 17.336 90.1425 17.112C89.9505 16.888 89.7425 16.776 89.5185 16.776C88.8785 16.776 88.1105 17.464 87.2145 18.84C86.3505 20.216 85.7105 21.432 85.2945 22.488C85.3585 22.488 85.6145 22.504 86.0625 22.536C86.5105 22.568 86.8945 22.584 87.2145 22.584C88.5265 22.584 89.4705 22.44 90.0465 22.152C90.6225 21.864 90.9265 21.272 90.9585 20.376ZM106.363 18.84C106.107 19.192 105.755 19.544 105.307 19.896C104.891 20.216 104.571 20.376 104.347 20.376C104.155 20.376 104.059 20.28 104.059 20.088C104.059 19.96 104.203 19.512 104.491 18.744C104.811 17.976 104.971 17.448 104.971 17.16C104.971 16.936 104.891 16.824 104.731 16.824C103.611 16.824 101.947 18.552 99.7391 22.008C97.5631 25.464 95.9471 28.84 94.8911 32.136C94.6991 32.392 94.3951 32.648 93.9791 32.904C93.5631 33.16 93.2111 33.288 92.9231 33.288C92.7311 33.288 92.5871 33.208 92.4911 33.048C92.4911 32.184 92.5871 31.4 92.7791 30.696C93.0031 29.992 93.2751 29.576 93.5951 29.448C94.2991 26.792 94.7951 24.808 95.0831 23.496L95.5631 21.48C95.6271 21.256 95.6591 21 95.6591 20.712C95.6591 20.552 95.6271 20.408 95.5631 20.28C95.4991 20.152 95.4671 20.024 95.4671 19.896C95.4671 19.704 95.4991 19.528 95.5631 19.368C96.0751 17.352 96.5871 15.976 97.0991 15.24C97.6431 14.504 98.4271 14.136 99.4511 14.136C99.8351 14.136 100.059 14.264 100.123 14.52C100.091 14.616 99.8511 15.176 99.4031 16.2C98.9871 17.224 98.5871 18.184 98.2031 19.08C97.8511 19.976 97.4511 21.112 97.0031 22.488C96.5551 23.864 96.2031 25.128 95.9471 26.28C97.0031 24.2 98.6351 21.704 100.843 18.792C103.051 15.848 104.875 14.376 106.315 14.376C107.083 14.376 107.467 14.856 107.467 15.816C107.467 16.808 107.099 17.816 106.363 18.84ZM118.917 16.536C118.853 17.176 118.437 18.088 117.669 19.272C116.901 20.456 116.309 21.048 115.893 21.048C115.765 21.048 115.701 20.952 115.701 20.76C115.701 20.472 115.877 19.896 116.229 19.032C116.581 18.136 116.757 17.56 116.757 17.304C116.757 16.824 116.469 16.584 115.893 16.584C115.797 16.584 115.269 16.664 114.309 16.824C113.509 17.016 112.453 17.528 111.141 18.36C109.861 19.192 109.221 20.104 109.221 21.096C109.221 21.448 109.301 21.768 109.461 22.056C109.877 22.888 110.597 23.592 111.621 24.168C112.677 24.744 113.573 25.288 114.309 25.8C115.077 26.312 115.461 26.984 115.461 27.816C115.461 29.224 114.373 30.584 112.197 31.896C110.053 33.176 108.213 33.816 106.677 33.816C106.421 33.816 106.213 33.704 106.053 33.48C105.893 33.288 105.813 33.08 105.813 32.856C105.813 32.472 105.989 32.28 106.341 32.28C107.397 32.28 108.869 31.96 110.757 31.32C112.677 30.648 113.637 29.928 113.637 29.16C113.637 28.712 113.269 28.184 112.533 27.576C111.829 26.968 111.045 26.408 110.181 25.896C109.349 25.384 108.565 24.776 107.829 24.072C107.125 23.336 106.773 22.632 106.773 21.96C106.773 21.416 106.965 20.904 107.349 20.424C107.637 20.072 107.941 19.736 108.261 19.416C108.581 19.064 108.885 18.76 109.173 18.504C109.461 18.248 109.781 17.992 110.133 17.736C110.517 17.48 110.853 17.256 111.141 17.064C111.429 16.872 111.765 16.68 112.149 16.488C112.533 16.296 112.837 16.152 113.061 16.056C113.285 15.928 113.573 15.784 113.925 15.624C114.309 15.464 114.565 15.368 114.693 15.336C114.853 15.272 115.093 15.176 115.413 15.048C115.733 14.92 115.909 14.856 115.941 14.856C116.485 14.696 116.901 14.616 117.189 14.616C118.341 14.616 118.917 15.256 118.917 16.536Z" fill="white"/>
</svg>
